<svg xmlns="http://www.w3.org/2000/svg" xmlns:xlink="http://www.w3.org/1999/xlink" width="60" height="60" viewBox="0 0 60 60"><defs><style>.a{fill:url(#a);}.b{fill:#fff;}</style><linearGradient id="a" x1="0.802" y1="0.893" x2="0.178" y2="-0.087" gradientUnits="objectBoundingBox"><stop offset="0" stop-color="#4d80fb"/><stop offset="1" stop-color="#23ce6b"/></linearGradient></defs><g transform="translate(0.177 0.131)"><circle class="a" cx="30" cy="30" r="30" transform="translate(-0.177 -0.131)"/><g transform="translate(16.132 16.127)"><path class="b" d="M18.161,16.321a8.161,8.161,0,1,1,8.161-8.161A8.17,8.17,0,0,1,18.161,16.321Zm0-15.155a6.995,6.995,0,1,0,6.995,6.995A7,7,0,0,0,18.161,1.166Z" transform="translate(1.658)"/><path class="b" d="M18,11.661H15.083a.583.583,0,0,1,0-1.166H18a1.166,1.166,0,0,0,0-2.332H16.832a2.332,2.332,0,0,1,0-4.663h2.914a.583.583,0,0,1,0,1.166H16.832a1.166,1.166,0,0,0,0,2.332H18a2.332,2.332,0,0,1,0,4.663Z" transform="translate(2.404 0.58)"/><path class="b" d="M17.083,12.414a.583.583,0,0,1-.583-.583V10.083a.583.583,0,1,1,1.166,0v1.749A.583.583,0,0,1,17.083,12.414Z" transform="translate(2.736 1.575)"/><path class="b" d="M17.083,4.915a.583.583,0,0,1-.583-.583V2.583a.583.583,0,1,1,1.166,0V4.332A.583.583,0,0,1,17.083,4.915Z" transform="translate(2.736 0.332)"/><path class="b" d="M4.08,23.658H.583A.583.583,0,0,1,0,23.075V12.583A.583.583,0,0,1,.583,12,11.847,11.847,0,0,1,6.73,13.393a.585.585,0,0,1,.247.632L4.646,23.218a.584.584,0,0,1-.565.44ZM1.166,22.492H3.627L5.736,14.18a11.7,11.7,0,0,0-4.57-1Z" transform="translate(0 1.99)"/><path class="b" d="M14.612,25.078c-2.751,0-8.071-2.313-11-3.693a.583.583,0,1,1,.5-1.054c2.285,1.077,7.881,3.581,10.5,3.581,2.835,0,9.519-3.331,11.441-4.32a2.513,2.513,0,0,0-2.115-.926,14.013,14.013,0,0,0-3.76.848,14.794,14.794,0,0,1-4.109.9,20.638,20.638,0,0,1-5.737-1.2.583.583,0,0,1,.4-1.1,19.8,19.8,0,0,0,5.338,1.131,14.013,14.013,0,0,0,3.76-.848,14.794,14.794,0,0,1,4.109-.9A3.469,3.469,0,0,1,27.4,19.647a.584.584,0,0,1-.279.7c-.363.191-8.914,4.731-12.515,4.731Z" transform="translate(0.544 2.901)"/><path class="b" d="M18.437,20.546a.583.583,0,0,1-.583-.583v-.583a1.724,1.724,0,0,0-1.334-1.693L5.266,14.97a.583.583,0,0,1-.43-.7.591.591,0,0,1,.7-.43l11.25,2.716a2.887,2.887,0,0,1,2.231,2.828v.583A.583.583,0,0,1,18.437,20.546Z" transform="translate(0.799 2.292)"/></g></g></svg>