<svg xmlns="http://www.w3.org/2000/svg" xmlns:xlink="http://www.w3.org/1999/xlink" width="60" height="60" viewBox="0 0 60 60"><defs><style>.a{fill:url(#a);}.b{fill:#fff;}</style><linearGradient id="a" x1="0.802" y1="0.893" x2="0.178" y2="-0.087" gradientUnits="objectBoundingBox"><stop offset="0" stop-color="#4d80fb"/><stop offset="1" stop-color="#23ce6b"/></linearGradient></defs><g transform="translate(0.177 0.007)"><circle class="a" cx="30" cy="30" r="30" transform="translate(-0.177 -0.007)"/><g transform="translate(16.077 16.599)"><g transform="translate(0 12.781)"><path class="b" d="M4.066,23.619H.581A.581.581,0,0,1,0,23.038V12.581A.581.581,0,0,1,.581,12a11.807,11.807,0,0,1,6.126,1.388.581.581,0,0,1,.245.63L4.629,23.181A.578.578,0,0,1,4.066,23.619Zm-2.9-1.162H3.615l2.1-8.284a11.621,11.621,0,0,0-4.553-1Z" transform="translate(0 -12)"/></g><g transform="translate(3.811 19.171)"><path class="b" d="M14.573,25.052c-2.742,0-8.044-2.305-10.96-3.681a.581.581,0,0,1,.495-1.05c2.277,1.074,7.855,3.569,10.465,3.569,2.827,0,9.487-3.319,11.4-4.306a2.5,2.5,0,0,0-2.108-.923,13.966,13.966,0,0,0-3.747.845,14.744,14.744,0,0,1-4.1.9,20.557,20.557,0,0,1-5.717-1.2.581.581,0,0,1,.4-1.092,19.736,19.736,0,0,0,5.32,1.127,13.966,13.966,0,0,0,3.747-.845,14.744,14.744,0,0,1,4.1-.9,3.46,3.46,0,0,1,3.457,2.14.583.583,0,0,1-.278.7C26.686,20.528,18.163,25.052,14.573,25.052Z" transform="translate(-3.28 -17.5)"/></g><g transform="translate(5.6 14.897)"><path class="b" d="M18.39,20.524a.581.581,0,0,1-.581-.581v-.581a1.72,1.72,0,0,0-1.329-1.687L5.265,14.966a.581.581,0,0,1-.429-.7.587.587,0,0,1,.7-.429l11.211,2.707a2.878,2.878,0,0,1,2.223,2.819v.581A.581.581,0,0,1,18.39,20.524Z" transform="translate(-4.82 -13.822)"/></g><g transform="translate(16.847 3.486)"><path class="b" d="M16.824,8.647a.582.582,0,0,1-.411-.17L14.67,6.735a.581.581,0,1,1,.821-.821l1.293,1.293,2.5-3a.581.581,0,1,1,.891.745l-2.9,3.486a.578.578,0,0,1-.418.208Z" transform="translate(-14.5 -4.001)"/></g><g transform="translate(13.942 0)"><path class="b" d="M20.518,12.619H13.681A1.688,1.688,0,0,1,12,10.926V2.693A1.688,1.688,0,0,1,13.681,1h8.255a1.689,1.689,0,0,1,1.682,1.693v6.8a1.683,1.683,0,0,1-.49,1.194l-1.42,1.433a1.663,1.663,0,0,1-1.191.5ZM13.681,2.162a.525.525,0,0,0-.519.531v8.234a.525.525,0,0,0,.519.53h6.836a.511.511,0,0,0,.365-.153L22.3,9.871a.53.53,0,0,0,.155-.376v-6.8a.525.525,0,0,0-.519-.531Z" transform="translate(-12 -1)"/></g></g></g></svg>