<svg xmlns="http://www.w3.org/2000/svg" xmlns:xlink="http://www.w3.org/1999/xlink" width="218.84" height="199.23" viewBox="0 0 218.84 199.23"><defs><style>.a{fill:none;}.b{fill:#23ce6b;}.c{opacity:0.1;}.d{fill:#fff;}.e{fill:#a5a5a5;}.f{fill:#0a2b38;}.g{fill:#6a707c;}.h{fill:#04385b;}.i{fill:#003451;}.j{fill:#084476;}.k{fill:#013e68;}.l{fill:#0a507f;}.m{fill:#dcfffe;}.n{fill:#b8e8e5;}.o{fill:#030e16;}.p{fill:#eb9e9d;}.q{fill:#fcb7ac;}.r{fill:#ffa8a7;}.s{fill:#280f0a;}.t{fill:#140705;}.u{fill:#1e160d;}.v{fill:#2b333a;}.w{fill:#343f49;}.x{fill:#2c363d;}.y{isolation:isolate;}.z{fill:#231f20;}.aa{fill:#2b2b2b;}.ab{fill:#090b0c;}.ac{fill:#1c2123;}.ad{clip-path:url(#a);}.ae{fill:#674300;}.af{clip-path:url(#b);}.ag{clip-path:url(#c);}.ah{fill:#191f21;}.ai{fill:#171b1c;}.aj{fill:#475563;}.ak{fill:#a8a8a8;}.al{fill:#ff7e4d;}.am{fill:#6d8ddb;}.an{fill:#96aee9;}.ao{fill:#ffbdb2;}.ap{fill:#0072bf;}.aq{fill:#414e5c;}.ar{fill:#9cdafd;}.as{fill:#3b4a56;}.at{fill:#ffd8a6;}.au{fill:#f8c8c1;}.av{fill:#febdb2;}.aw{fill:#332a21;}.ax{fill:#1b2123;}.ay{fill:#141718;}.az{fill:#111515;}.ba{clip-path:url(#d);}.bb{fill:#0c0e0f;}.bc{clip-path:url(#e);}.bd{fill:#121616;}.be{fill:#121516;}.bf{fill:#111415;}.bg{fill:#111314;}.bh{fill:#101314;}.bi{fill:#101213;}.bj{fill:#0f1212;}.bk{fill:#0f1112;}.bl{fill:#0e1111;}.bm{fill:#0e1011;}.bn{fill:#0d1010;}.bo{fill:#0d0f10;}.bp{fill:#0c0f0f;}</style><clipPath id="a"><path class="a" d="M111.7,422.435l-.009,3.511a1.655,1.655,0,0,1-.018.25l.011-3.509A1.973,1.973,0,0,0,111.7,422.435Z" transform="translate(-111.674 -422.435)"/></clipPath><clipPath id="b"><path class="a" d="M111.507,423.828l-.011,3.509a7.523,7.523,0,0,1-2,.614l.011-3.511A7.541,7.541,0,0,0,111.507,423.828Z" transform="translate(-109.499 -423.828)"/></clipPath><clipPath id="c"><path class="a" d="M122.4,425.764l-.009,3.509a.848.848,0,0,1-.227.552,3.016,3.016,0,0,1-2.886.56l.011-3.509a3.018,3.018,0,0,0,2.885-.561A.831.831,0,0,0,122.4,425.764Z" transform="translate(-119.279 -425.764)"/></clipPath><clipPath id="d"><path class="a" d="M97.677,401.928l2.82-1.638a.227.227,0,0,0-.085.072L97.591,402A.321.321,0,0,1,97.677,401.928Z" transform="translate(-97.591 -400.29)"/></clipPath><clipPath id="e"><path class="a" d="M110.818,414.153,108,415.792c-.414.239-.7.209-.794.153-.272-.16-1.519-.88-3.061-1.771l2.82-1.639c1.542.891,2.789,1.612,3.061,1.772C110.122,414.363,110.4,414.392,110.818,414.153Z" transform="translate(-104.144 -412.535)"/></clipPath></defs><g transform="translate(-10.221 -324.366)"><g transform="translate(10.221 373.287)"><g transform="translate(0 0)"><g transform="translate(187.605 39.156)"><path class="b" d="M400.378,271.908l-6.049-3.492s-1.482-12.954-.5-22.986c1.385-14.1,10.489-31.059,21.35-27.076s-4.98,18.34-8.506,30.3S400.378,271.908,400.378,271.908Z" transform="translate(-393.495 -217.764)"/><path class="c" d="M400.378,271.908l-6.049-3.492s-1.482-12.954-.5-22.986c1.385-14.1,10.489-31.059,21.35-27.076s-4.98,18.34-8.506,30.3S400.378,271.908,400.378,271.908Z" transform="translate(-393.495 -217.764)"/><g transform="translate(3.084 3.51)"><path class="d" d="M399.408,272.8a.234.234,0,0,1-.231-.2c-2.057-15.8,3.571-39.724,14.936-48.8a.233.233,0,1,1,.291.365c-11.243,8.974-16.8,32.695-14.764,48.37a.232.232,0,0,1-.2.261A.173.173,0,0,1,399.408,272.8Z" transform="translate(-398.759 -223.754)"/></g></g><g transform="translate(193.365 57.847)"><path class="b" d="M407.678,287.619l-4.3-2.485A47.477,47.477,0,0,1,407,265.447c3.794-9.4,13.207-17.2,17.942-15.561s4.617,5,2.308,8.518S410.9,270.321,407.678,287.619Z" transform="translate(-403.328 -249.667)"/><g transform="translate(1.448 3.268)"><path class="d" d="M406.034,290.163h-.015a.234.234,0,0,1-.218-.248c1.418-22.121,12.61-33,19.33-34.662a.234.234,0,0,1,.112.453c-7.08,1.751-17.648,13.53-18.976,34.238A.233.233,0,0,1,406.034,290.163Z" transform="translate(-405.8 -255.246)"/></g></g><g transform="translate(11.609)"><path class="b" d="M86.3,291.942s.8-12.99-6.744-21.891-17.368-8.873-20.623-7.213-5.432,6.4.163,9.791,17.494,10.177,19.47,16.235Z" transform="translate(-55.649 -261.981)"/><path class="c" d="M86.3,291.942s.8-12.99-6.744-21.891-17.368-8.873-20.623-7.213-5.432,6.4.163,9.791,17.494,10.177,19.47,16.235Z" transform="translate(-55.649 -261.981)"/><g transform="translate(4.938 2.626)"><path class="d" d="M86.26,290.547a.292.292,0,0,1-.291-.262c-1.557-14.373-15.918-22.339-21.646-23.24a.293.293,0,0,1-.243-.335.3.3,0,0,1,.335-.244c5.857.921,20.545,9.065,22.136,23.756a.294.294,0,0,1-.26.323Z" transform="translate(-64.077 -266.464)"/></g></g><g transform="translate(0 16.538)"><path class="b" d="M71.769,297.085c-1.892-4.312-4.031-6.247-10.184-5.217s-5.244.871-12.8-1.054a15.071,15.071,0,0,0-9.786.434c-2.571,1.157-4.5,3.517-2,6.011,2.8,2.8,6.978,3.743,10.087,6.2a4.88,4.88,0,0,1,1.618,1.95c.812,2.073-.814,4.41-.341,6.587.458,2.1,2.759,3.331,4.906,3.472s4.259-.5,6.4-.749,4.541.017,6.013,1.586c1.582,1.686,1.624,4.373,3.094,6.158,2.208,2.682,7.63,3.423,10.541,1.745l7.668-4.42c5.07-6.833-2.9-12.244-7.116-17.547C77.817,299.668,72.905,299.675,71.769,297.085Z" transform="translate(-35.833 -290.21)"/><g transform="translate(4.876 2.795)"><path class="d" d="M85.663,317.647a.292.292,0,0,1-.25-.139c-8.748-14.174-32.538-21.342-40.985-21.942a.293.293,0,0,1-.272-.313.3.3,0,0,1,.313-.272c8.535.607,32.582,7.863,41.442,22.219a.293.293,0,0,1-.249.446Z" transform="translate(-44.156 -294.98)"/></g><g transform="translate(18.381 12.588)"><path class="d" d="M67.5,317.89a.293.293,0,0,1-.175-.528c.305-.227,7.568-5.559,14.628-5.666h0a.293.293,0,0,1,0,.586c-6.872.1-14.215,5.5-14.288,5.55A.289.289,0,0,1,67.5,317.89Z" transform="translate(-67.206 -311.696)"/></g></g></g></g><path d="M62.131,336.107a14.312,14.312,0,0,0-9.483,11.164c-.648,3.7-8.13,36.445,1.405,42.081s24.436-6.073,25.168-11.009C80.756,368.051,77.333,328.052,62.131,336.107Z" transform="translate(8.21 8.536)"/><path class="e" d="M84.244,461.259h0v-60.3H80.418v60.3h0c0,.6.853,1.094,1.909,1.1s1.916-.486,1.916-1.089Z" transform="translate(33.133 61.238)"/><path class="e" d="M39.379,429.027h0V379.443H35.364v49.584h0c0,.633.9,1.15,2,1.152s2.01-.509,2.012-1.141Z" transform="translate(-2.888 44.034)"/><path d="M133.843,430.016h0V375.158h-3.828v54.858h0c0,.6.855,1.1,1.909,1.1s1.916-.486,1.918-1.09Z" transform="translate(72.786 40.608)"/><g transform="translate(60.154 375.431)"><g transform="translate(7.435)"><path class="f" d="M58.54,356.04v16.087l-3.663-2.117V353.926Z" transform="translate(-54.877 -351.798)"/><path d="M60.577,353.918V370l-3.665,2.114V356.032Z" transform="translate(-53.249 -351.804)"/><path class="f" d="M58.54,360.653v16.087l-3.663-2.118V358.535Z" transform="translate(-54.877 -348.112)"/><path d="M60.577,358.529v16.087l-3.665,2.114V360.647Z" transform="translate(-53.249 -348.117)"/><path class="g" d="M58.54,356.971l-3.663-2.114,3.663-2.114,3.665,2.114Z" transform="translate(-54.877 -352.743)"/></g><g transform="translate(13.841 43.715)"><g transform="translate(0 16.824)"><path class="f" d="M58.774,387.97l2.32-1.339a.8.8,0,0,1,.13-.092c.9-.522,2.372.326,3.286,1.9s.925,3.266.027,3.793l-2.512,1.422L60.26,390.6l.025-.016Z" transform="translate(-58.167 -386.385)"/><path d="M62.413,392.986c-.9.525-2.368-.324-3.282-1.895s-.927-3.268-.027-3.792,2.368.324,3.282,1.895S63.316,392.466,62.413,392.986Z" transform="translate(-58.436 -385.778)"/></g><g transform="translate(24.279 2.724)"><path class="f" d="M72.267,380.132l2.316-1.339a1.283,1.283,0,0,1,.131-.088c.9-.525,2.372.326,3.288,1.9s.929,3.268.027,3.792c-.067.036-2.512,1.423-2.512,1.423l-1.765-3.052.025-.016Z" transform="translate(-71.657 -378.55)"/><path d="M75.908,385.152c-.9.522-2.374-.324-3.284-1.895s-.93-3.271-.029-3.793,2.37.324,3.284,1.9S76.8,384.63,75.908,385.152Z" transform="translate(-71.928 -377.943)"/></g><g transform="translate(0.134 3.113)"><path class="f" d="M58.849,380.349l2.32-1.339a.722.722,0,0,1,.133-.092c.9-.518,2.366.326,3.282,1.9s.927,3.268.025,3.793L62.1,386.032l-1.762-3.052.027-.013Z" transform="translate(-58.241 -378.766)"/><path d="M62.488,385.366c-.9.529-2.368-.324-3.281-1.893s-.93-3.27-.029-3.793,2.372.328,3.284,1.895S63.391,384.844,62.488,385.366Z" transform="translate(-58.511 -378.159)"/></g><g transform="translate(24.265 16.596)"><path class="f" d="M72.261,387.843l2.312-1.339a.947.947,0,0,1,.135-.092c.9-.522,2.372.326,3.282,1.9s.929,3.27.029,3.792l-2.514,1.425-1.76-3.05.027-.018Z" transform="translate(-71.648 -386.258)"/><path d="M75.9,392.86c-.9.524-2.37-.324-3.284-1.9s-.927-3.268-.027-3.792,2.37.328,3.286,1.9S76.8,392.338,75.9,392.86Z" transform="translate(-71.92 -385.652)"/></g><g transform="translate(1.22)"><g transform="translate(0 1.311)"><path d="M59.114,394.215v-2.179l29.259-14.271v2.177L61.383,395.524Z" transform="translate(-59.114 -377.765)"/><path d="M88.47,394.215v-2.179L59.212,377.765v2.177L86.2,395.524Z" transform="translate(-59.036 -377.765)"/></g><path class="f" d="M59.114,392.618,86.1,377.036l2.27,1.311L61.383,393.929Z" transform="translate(-59.114 -377.036)"/><path class="f" d="M88.47,392.618,61.48,377.036l-2.268,1.311L86.2,393.929Z" transform="translate(-59.036 -377.036)"/></g></g><path d="M66.291,392.237h0V370.323h4.076v21.914h0c0,.641-.909,1.166-2.033,1.171s-2.041-.513-2.042-1.157Z" transform="translate(-38.317 -338.688)"/><path d="M100.766,371.8s6.856,4.177,1.35,8.422c-5.388,4.153-19.8,14.688-28.643,12.073s-20.984-11.135-22.125-12.453-1.024-3.367,3.581-6.757c3.3-2.428,19.381-11.285,20.307-11.614s3.9-2.077,9.975,1.107c5.721,3.007,17.477,10.653,17.477,10.653Z" transform="translate(-50.745 -346.384)"/></g><g transform="translate(62.391 324.366)"><g transform="translate(0 15.299)"><path class="h" d="M67.792,348.615c4.231,7.461,10.329,11.128,11.2,17.675.148,1.128,6.737-7.068,5.3-9.419-3.36-5.5-5.339-9.656-7.984-14.32-4.229-7.459-6.8-7.733-9.438-6.239S63.561,341.156,67.792,348.615Z" transform="translate(-41.782 -330.692)"/><path class="i" d="M76.374,352.62c-.6-2.408-5.614-7.983-5.614-7.983l-3.1.122c3.891,5.352,8.274,8.821,9,14.3.043.34.675-.173,1.49-1.107C77.465,355.884,76.661,353.771,76.374,352.62Z" transform="translate(-39.455 -323.459)"/><path class="j" d="M65.688,339.437c-.684.146-7.887,3.768-11.09,7.4-2.347,2.667-2.64,8.963-2.607,9.795.1,2.687,3.792,19.039,4.364,22.685s.131,7.657.131,10.115c0,2.284-.7,9.1-.5,10.205.691,3.664,10.248,2.933,12.084,2.825,5.911-.353,13.343-4.826,12.73-7.716-1.764-8.3-1.114-32.433-.353-35.384s6.527-18.108,1.972-22.138A8.192,8.192,0,0,0,77.5,335.6C72.467,335.838,66.532,339.261,65.688,339.437Z" transform="translate(-51.988 -330.692)"/><path class="i" d="M54.6,342.726c-2.347,2.667-2.64,8.963-2.607,9.795.1,2.687,3.792,19.039,4.364,22.685s.131,7.657.131,10.115c0,.77-.081,2.057-.178,3.464a7.262,7.262,0,0,0,3.138-.284c1.927-1.288-2.215-24.79-3.894-31.907-3.563-15.112.5-13.709,1.171-15.861A18.145,18.145,0,0,0,54.6,342.726Z" transform="translate(-51.988 -326.581)"/><path class="k" d="M65.421,335.841c-.516.117-7.045,1.758-9.106,6.277-1.776,3.9.781,9.213.4,9.33s4.416.241,5.515.975a5.771,5.771,0,0,0-2.377,1.812c-.556,1.04,15.375,9.915,15.382,12.732,0,0,4.641-14.142,4.1-16.676-.139-.644-3.009-1.134-3.009-1.134.193-.979,2.028-2.463,2.028-2.463C78.34,345.424,71.295,334.488,65.421,335.841Z" transform="translate(-49.035 -330.583)"/><path class="l" d="M66.177,335.086c-.518.119-7.045,1.758-9.106,6.277-1.776,3.9.779,9.215.4,9.33s4.416.241,5.515.975a5.781,5.781,0,0,0-2.377,1.814c-.556,1.038,14.016,11.272,14.024,14.088,0,0,6-15.5,5.462-18.035-.14-.644-3.009-1.134-3.009-1.134.193-.979,2.028-2.464,2.028-2.464C79.1,344.669,72.05,333.733,66.177,335.086Z" transform="translate(-48.431 -331.187)"/><path class="m" d="M72.558,347.168a28.192,28.192,0,0,1,.866,9.527c-.173,3.254-.578,5.472-.945,8.575-.668-6.377-3.759-10.324-7.77-15.17a52.861,52.861,0,0,0-4.135-4.488,5.67,5.67,0,0,1-1.411-4.411c.337-2.9,2.679-3,4.637-3.266,3.054-.414,5.625.642,7.308,4.193C71.107,342.128,72.056,345.475,72.558,347.168Z" transform="translate(-46.277 -328.885)"/><path class="n" d="M65.682,351.234c.786-.88.961-2.741,1.531-3.8.428-.8.333-1.013,1.3-.556a4.817,4.817,0,0,1,1.891,2.3c1.085-1.263.642-4.771.392-6.23a7.636,7.636,0,0,0-3.594-4.592l-.378,1.8a2.713,2.713,0,0,0-.022-.876c-.934-.34-2.105-.905-3.316-1.355-1.888.241-4,.477-4.324,3.227a5.67,5.67,0,0,0,1.411,4.411c.68.646,1.391,1.377,2.086,2.136.275.187.547.383.812.6a6.526,6.526,0,0,1,1.749,2.381C65.376,350.859,65.529,351.048,65.682,351.234Z" transform="translate(-46.277 -328.83)"/><path class="o" d="M69.425,352.891a38.865,38.865,0,0,0-4.017-9.42l-1.328.745s.461,6.257,1.278,7.5l-.065-.106c.7.959,3.228,9.163,3.228,9.163h0a25.181,25.181,0,0,0,.9-7.884Z" transform="translate(-42.32 -324.391)"/><path class="o" d="M63.019,344.184s1.958,2.186,2.57,1.947,1.377.1,1.236-2.91S63.852,341.837,63.019,344.184Z" transform="translate(-43.168 -325.901)"/><path class="m" d="M68.414,337.9c1.63.848,2.762,4.643,3.039,6.262a12.936,12.936,0,0,1,.162,4.56,4.817,4.817,0,0,0-1.891-2.3c-.966-.457-.871-.245-1.3.556-.6,1.114-.752,3.119-1.641,3.937a8.3,8.3,0,0,0-2.1-3.077c-1.013-.822-2.147-1.38-3.158-2.271-1.339-1.177-3.424-2.534-3.856-4.337-.329-1.384.932-3.131,2.105-3.925,2.239-1.517,5.951.686,8.242,1.519a2.7,2.7,0,0,1,.022.875Z" transform="translate(-47.489 -329.736)"/><path class="p" d="M59.406,332.868c0,2.375.4,3.574.068,6.428a24.008,24.008,0,0,0-.515,3.343c0,2.161,2.347,3.088,3.538,3.7,1.092.569,3.284.642,4.952,2.188a11.063,11.063,0,0,0,.353-4.654c-.207-1.233.049-3.032-.374-4.254-.477-1.344-1.746-2.078-1.746-3.487Z" transform="translate(-46.413 -332.868)"/></g><path class="q" d="M69.247,328.274A16.2,16.2,0,0,0,70.7,331.9a2.438,2.438,0,0,1,.277,1.929,5.2,5.2,0,0,0,.529,3.48,8.706,8.706,0,0,1,.261,4.438c-.126,1.161-.068,2.494-.959,3.342-2.206,2.1-5.318.785-7.993.344-2.647-.437-2.877-4.124-4.018-6.061-2.055-3.5-1.931-8.913,1.909-11.265a11.039,11.039,0,0,1,6.712-1.54c.7.135,2.248,1.362,1.758,2.179Z" transform="translate(-47.604 -322.686)"/><path class="r" d="M60.174,338.673c-1.623-3.131-6.158-8.222-2.717-10.083.371-.2,6.034-.086,6.5-.252a7.212,7.212,0,0,1,1.31-.14s-2.93,2.091-2.755,2.859c.543,2.372-1.256,6.064-.6,6.831s1.461,2.246,1.121,2.424a.907.907,0,0,0-.257,1.089c.158.3,2.068,3.093,3.572,3.234h0c-.923-.211-1.693-.328-2.573-.522C61.495,343.614,61.076,340.406,60.174,338.673Z" transform="translate(-48.621 -321.303)"/><path class="s" d="M56.648,326.606c2.062-2.591,7.065-2.7,11.362-1.517,2.143.588,3.077,3.262,3.077,3.262.57.687-1.321,2.667-1.828,3.048a8.836,8.836,0,0,1-3.486,1.443,16.646,16.646,0,0,1-2.352.351,11.211,11.211,0,0,0-1.755.077c-1.17.322-.923,1.911-.979,2.89a14.772,14.772,0,0,0-.137,2.374c.036.394,1.427,4.587.837,4.8-.813.29-4.816-3.113-5.409-5.287C55.59,336.61,53,331.188,56.648,326.606Z" transform="translate(-49.798 -324.366)"/><path class="t" d="M61.388,343.238c.408-.146-.13-2.19-.513-3.57a17.062,17.062,0,0,1-3.619-6.887c-.965-4.382,2.987-8,3.316-8.294-.11.02-.227.032-.335.058l-.365.083a5.851,5.851,0,0,0-3.225,1.882c-3.644,4.582-1.058,10-.669,11.441C56.572,340.125,60.574,343.528,61.388,343.238Z" transform="translate(-49.798 -324.27)"/><path class="r" d="M57.387,334.989c.781,1.288,1.87,2.055,2.438,1.713a2.421,2.421,0,0,0,.214-3.057c-.781-1.287-2.478-1.947-3.039-1.609S56.606,333.7,57.387,334.989Z" transform="translate(-48.247 -318.304)"/></g><g transform="translate(26.897 366.168)"><path class="u" d="M114.671,414.447c.372.891,1.02,5.264.632,6.014a3.089,3.089,0,0,1-3.311,1.76c-1.819-.207-3.194-2.222-4.5-2.467a50.252,50.252,0,0,1-7.873-3.446c-1.389-.718-3.174-3.176-2.712-4.628a4.01,4.01,0,0,1,3.219-2.021,38.742,38.742,0,0,0,5.35.8,13.556,13.556,0,0,0,2.854.392c.659.031,3.6-.2,3.568.9Z" transform="translate(19.357 -297.993)"/><path class="v" d="M113.036,401.305c-.471-2.775-.176-4.986-.286-8.074-.079-2.28-12.071.412-12.19,5.928,0,0,2.638,21.445,1.188,28.261l-.189,1.139a1.692,1.692,0,0,0,.482,1.746,7.453,7.453,0,0,0,2.737,1.31c2.12.464,4.934.194,6.381-1.416C114.715,426.247,114.627,410.6,113.036,401.305Z" transform="translate(22.34 -311.759)"/><g transform="translate(97.255 87.559)"><path class="u" d="M103.181,419.985c.153.954,1.218,4.466-.347,7.4a2.7,2.7,0,0,1-3.637.921c-.621-.292-2.571-2.917-3.786-3.462a51.1,51.1,0,0,1-6.127-4.146,8.652,8.652,0,0,1-2.321-2.487c-.606-1.243-1-3.129-.211-4.438.574-.947,1.479-1.337,2.143-.974,2.33,1.267,4.312,1.454,5.974,2.179a23.341,23.341,0,0,0,3.469,1.414A52.668,52.668,0,0,1,103.181,419.985Z" transform="translate(-86.309 -383.133)"/><path class="w" d="M108.609,406.663c.225-2.8,1.06-4.869,1.713-7.894.484-2.226-11.337-4.621-12.813.695,0,0-2.624,22.361-5.712,28.614l-.464,1.058s-1.153,2.032-.529,2.926a9.439,9.439,0,0,0,2.742,2.76c1.94.975,6.34,2.131,7.252.166C103.822,428.486,107.858,416.069,108.609,406.663Z" transform="translate(-82.863 -396.253)"/><path class="x" d="M101.794,398.652l-5.022,4.509c-.992,7.052-2.876,18.746-4.974,23l-.464,1.058s-1.153,2.032-.529,2.926a9.439,9.439,0,0,0,2.742,2.76l.038.018c-.664-5.093,1.817-13.486,2.741-15.568C97.509,414.682,101.794,398.652,101.794,398.652Z" transform="translate(-82.863 -394.335)"/></g><g transform="translate(112.87 88.719)"><g transform="translate(0.168 24.984)"><g transform="translate(0 25.478)"><g class="y"><path class="z" d="M95.911,427.555l.013-.09c0-.034.011-.067.016-.1l.014-.067.014-.065.023-.088.016-.05c.011-.034.022-.067.034-.1l.014-.04.054-.139.009-.014c.016-.041.036-.081.056-.121l.02-.036c.018-.04.04-.076.059-.113l.013-.02c.025-.045.052-.086.077-.13l.025-.034c.02-.032.04-.059.061-.09l.034-.045c.018-.027.038-.05.056-.076s.032-.038.05-.058l.047-.052c.027-.032.054-.061.083-.09l.052-.052.041-.04.072-.061.041-.034c.025-.022.052-.041.079-.061l.038-.025c.038-.027.079-.052.119-.076a1.265,1.265,0,0,1,.157-.077c.014-.009.032-.014.047-.022l.088-.031.056-.013.05-.013c.022,0,.045-.007.067-.009l.036-.005c.027,0,.056,0,.081,0h.018a.712.712,0,0,1,.092.011l.022.005a.518.518,0,0,1,.07.022l.02.005a.413.413,0,0,1,.081.04l-.824-.481-.005,0a.677.677,0,0,0-.063-.029l-.013-.005-.022-.007-.032-.013-.034-.007-.023-.005-.013,0a.484.484,0,0,0-.074-.007H96.9c-.02,0-.04,0-.059,0h-.02l-.038,0-.034,0-.031.007-.052.011-.027.007-.027.009-.088.029-.032.011-.018.009c-.05.023-.1.049-.155.077s-.079.049-.119.076l-.038.029-.079.058-.041.038a.713.713,0,0,0-.07.061l-.043.038-.025.025-.027.027c-.029.029-.056.059-.083.088l-.027.029-.02.025-.049.059-.032.038-.023.034-.036.047-.023.032c-.013.02-.025.038-.038.056l-.023.038-.011.013c-.022.036-.045.07-.063.106l-.005.007-.013.022-.041.077-.018.034-.02.038-.016.032-.04.088-.007.014,0,.005c-.016.036-.031.076-.045.112l-.005.02-.016.041-.022.057-.013.043-.014.05-.011.032-.013.056-.016.063-.005.023-.007.047c-.007.031-.013.065-.018.1l-.005.029-.005.061,0,.043c0,.047-.005.094-.005.139a.935.935,0,0,0,.283.743c.025.02.052.038.079.056l.824.477a.868.868,0,0,1-.362-.8c0-.043,0-.09.005-.137Z" transform="translate(-95.08 -424.94)"/><g transform="translate(0.824 0.478)"><path class="aa" d="M96.778,425.376c.686-.4,1.243-.077,1.247.709a2.73,2.73,0,0,1-1.24,2.149c-.687.4-1.245.079-1.247-.713A2.73,2.73,0,0,1,96.778,425.376Z" transform="translate(-95.538 -425.205)"/></g></g><g class="y" transform="translate(1.292 0.808)"><path class="z" d="M96.631,428c0-.029.007-.059.013-.09s.009-.065.016-.1.007-.045.013-.067.011-.043.016-.065.014-.059.023-.088l.016-.05c.009-.034.022-.067.032-.1l.014-.04c.018-.047.036-.092.056-.137l.007-.016c.018-.041.036-.081.058-.122l.018-.034c.02-.038.04-.076.061-.113l.011-.022c.025-.043.052-.085.079-.128l.023-.036c.02-.031.041-.059.063-.088l.034-.047.056-.072.049-.059.047-.054.083-.088c.018-.016.034-.034.054-.052l.041-.038.07-.063.043-.034a.822.822,0,0,1,.077-.059l.038-.027c.04-.029.079-.052.119-.076a1.152,1.152,0,0,1,.157-.077c.016-.009.032-.014.049-.022l.088-.029.056-.016.05-.011.067-.011.036,0c.027,0,.054,0,.079,0h.018a.757.757,0,0,1,.094.013l.022.005c.023.005.047.013.068.02l.022.007a.471.471,0,0,1,.079.04l-.822-.479-.007,0a.343.343,0,0,0-.063-.032l-.011,0-.022-.007-.032-.013-.036-.007-.022,0-.013,0c-.023,0-.05-.007-.074-.009h-.025c-.018,0-.038,0-.058,0l-.02,0-.038,0-.034,0-.032.005-.05.011-.029.005-.027.011-.088.031-.031.011-.018.009q-.076.032-.157.076c-.04.023-.079.05-.117.076l-.04.029-.077.057-.043.036c-.023.02-.047.04-.07.061l-.041.04-.027.025-.025.029c-.029.027-.058.057-.085.088l-.025.027-.022.025-.049.059-.032.038-.023.034-.034.045-.023.034-.038.056-.025.036-.011.016-.065.1,0,.007-.013.022-.041.076-.02.036-.018.038-.018.032-.04.088-.007.014,0,.005c-.016.038-.031.074-.045.112l-.007.02-.014.041-.022.056-.013.043-.016.054-.009.031-.014.056-.016.065,0,.022a.4.4,0,0,0-.009.045c-.005.032-.013.067-.016.1l-.005.029c0,.022,0,.041-.005.061l-.005.045c0,.045-.005.09-.005.137a.935.935,0,0,0,.283.743.758.758,0,0,0,.079.054l.826.48a.872.872,0,0,1-.364-.8c0-.043,0-.088.005-.137Z" transform="translate(-95.798 -425.389)"/><g transform="translate(0.824 0.477)"><path class="aa" d="M97.5,425.825c.687-.4,1.245-.079,1.247.711a2.732,2.732,0,0,1-1.238,2.147c-.689.4-1.247.079-1.249-.713A2.727,2.727,0,0,1,97.5,425.825Z" transform="translate(-96.256 -425.654)"/></g></g></g><g transform="translate(38.25 14.077)"><g class="y"><path class="z" d="M117.171,421.221a.719.719,0,0,1,.011-.09c0-.034.011-.067.016-.1l.014-.067.014-.063.023-.09.016-.05c.011-.034.022-.067.034-.1l.014-.04a1.471,1.471,0,0,1,.056-.139l.007-.014c.016-.041.036-.081.056-.121l.018-.036c.02-.04.04-.076.061-.113l.013-.02c.025-.045.05-.086.077-.13l.025-.034c.02-.032.04-.061.061-.09s.023-.032.034-.047l.056-.07.049-.061.049-.052a.96.96,0,0,1,.083-.088l.052-.054.041-.04.072-.061.041-.034c.025-.022.052-.041.077-.059l.038-.027c.04-.027.079-.052.121-.076a1.371,1.371,0,0,1,.155-.077l.049-.02a.466.466,0,0,1,.088-.029.322.322,0,0,1,.056-.016l.05-.013c.023,0,.043-.007.067-.009l.036-.005c.029,0,.054,0,.081,0H119a.752.752,0,0,1,.092.011l.022.005a.437.437,0,0,1,.068.022l.022.007a.37.37,0,0,1,.081.038l-.824-.48-.005,0-.063-.029-.013-.005-.022-.007-.032-.013-.036-.007-.022-.005-.011,0-.076-.009h-.023c-.02,0-.04,0-.059,0l-.02,0-.038.005-.036,0-.029.007-.052.011-.027.007-.029.009c-.029.009-.058.02-.086.031l-.032.009-.018.009c-.05.023-.1.049-.155.077s-.081.05-.119.076l-.038.029c-.027.02-.052.038-.079.059l-.041.036a.721.721,0,0,0-.07.061c-.014.013-.029.023-.043.038l-.025.025-.027.029c-.029.027-.056.058-.085.088l-.025.029-.022.025a.518.518,0,0,0-.047.059l-.032.036-.025.034-.034.047-.023.032-.038.056-.025.038-.009.014c-.023.034-.043.07-.065.1l0,.007-.013.022-.041.077-.018.034-.02.038-.016.032c-.014.031-.027.058-.04.088l-.007.016,0,0c-.018.038-.032.076-.047.112l-.007.02-.014.041-.02.058-.014.043-.014.052-.011.031-.014.056-.014.063-.005.023-.009.045c-.005.034-.011.067-.016.1l-.005.029-.005.061,0,.043c0,.047-.007.094-.007.139a.936.936,0,0,0,.284.743c.025.02.052.038.079.056l.824.479a.877.877,0,0,1-.364-.8c0-.045,0-.092.005-.139Z" transform="translate(-116.336 -418.604)"/><g transform="translate(0.824 0.48)"><path class="aa" d="M118.036,419.041c.686-.4,1.243-.077,1.247.709a2.73,2.73,0,0,1-1.24,2.149c-.687.4-1.247.079-1.249-.711A2.734,2.734,0,0,1,118.036,419.041Z" transform="translate(-116.794 -418.87)"/></g></g><g class="y" transform="translate(1.294 0.81)"><path class="z" d="M117.888,421.669c0-.031.007-.061.011-.09s.011-.067.018-.1l.013-.067.016-.065c.007-.031.014-.059.023-.088l.014-.05c.011-.034.023-.067.034-.1l.014-.04c.018-.047.036-.092.056-.137l.007-.016c.018-.041.038-.081.058-.119l.018-.038c.018-.04.04-.076.059-.112l.013-.022c.025-.045.052-.086.079-.13l.023-.034c.02-.032.041-.059.063-.09l.034-.047.056-.072.047-.058c.016-.018.032-.036.049-.056s.054-.059.083-.088l.054-.052.041-.038c.023-.022.047-.043.07-.063l.043-.034a.8.8,0,0,1,.077-.059l.038-.027q.059-.04.119-.076a1.393,1.393,0,0,1,.157-.077l.049-.022c.029-.011.059-.02.088-.029s.036-.011.054-.014.036-.009.052-.013.043-.007.065-.009l.038-.005c.027,0,.054,0,.079,0h.02a.5.5,0,0,1,.09.011l.023.005.068.02.02.007a.57.57,0,0,1,.081.04l-.822-.479-.007,0a.4.4,0,0,0-.063-.031l-.011-.005-.022-.007-.032-.013-.036-.005-.023-.007-.011,0c-.025,0-.049-.007-.076-.009h-.023c-.018,0-.038,0-.058,0l-.022,0-.038,0-.034,0-.031.007-.052.009-.027.007-.027.009-.088.031-.031.011-.018.007c-.05.023-.1.049-.155.077s-.081.05-.121.077l-.038.027-.077.059-.043.036c-.023.02-.047.038-.07.059l-.041.041-.027.023-.027.029c-.027.027-.056.058-.083.088l-.027.027-.02.025-.049.059a.355.355,0,0,1-.032.04l-.023.032a.478.478,0,0,0-.034.049l-.025.031-.038.056-.023.038-.011.014-.065.1,0,.007-.011.022-.043.077-.018.034-.02.038-.016.032c-.014.031-.027.059-.04.088l-.007.016,0,.005c-.016.036-.031.072-.047.112l-.005.018-.014.043-.022.054-.013.043-.016.054-.009.031-.014.058-.016.063,0,.022-.009.047c-.005.032-.013.065-.018.1l-.005.029-.005.061,0,.045c0,.045-.005.09-.005.137a.941.941,0,0,0,.283.743c.027.02.054.038.081.056l.822.479a.872.872,0,0,1-.362-.8c0-.045,0-.09.005-.139Z" transform="translate(-117.055 -419.054)"/><g transform="translate(0.824 0.477)"><path class="aa" d="M118.753,419.49c.686-.4,1.245-.079,1.247.711a2.729,2.729,0,0,1-1.24,2.147c-.687.4-1.245.079-1.247-.711A2.735,2.735,0,0,1,118.753,419.49Z" transform="translate(-117.513 -419.319)"/></g></g></g><g transform="translate(42.391 29.324)"><g class="y"><path class="z" d="M119.47,429.692c0-.031.005-.061.011-.092s.011-.065.016-.1l.014-.067a.34.34,0,0,1,.016-.065c.007-.031.014-.059.023-.088a.439.439,0,0,1,.014-.052l.034-.1.014-.041c.016-.045.036-.09.054-.137l.009-.016c.018-.04.036-.081.056-.119l.018-.04c.022-.036.041-.076.061-.112l.013-.022c.025-.041.05-.085.079-.126l.023-.036c.02-.031.04-.059.061-.088l.034-.049.056-.07c.016-.022.032-.04.049-.059l.049-.052c.027-.032.054-.061.083-.09l.052-.052.043-.04c.022-.022.047-.041.068-.061l.043-.036.079-.059.038-.027a1.179,1.179,0,0,1,.119-.074,1.07,1.07,0,0,1,.157-.079l.047-.02.088-.031.056-.016.05-.009c.023,0,.045-.007.067-.009l.038-.005a.544.544,0,0,1,.079,0h.018a.5.5,0,0,1,.092.011l.022.005a.423.423,0,0,1,.068.018l.022.007a.572.572,0,0,1,.081.041l-.822-.48-.009,0a.327.327,0,0,0-.061-.031l-.013,0-.02-.007-.032-.013-.038-.009-.022,0-.011,0c-.025,0-.05-.007-.076-.009h-.023c-.02,0-.04,0-.059,0l-.02,0-.038,0-.036,0-.031.007-.05.011-.027.005-.029.011a.8.8,0,0,0-.086.029l-.031.011-.018.009a1.271,1.271,0,0,0-.157.079,1.4,1.4,0,0,0-.119.074l-.038.027c-.025.02-.052.04-.077.061l-.043.032c-.023.022-.049.041-.07.063l-.043.04-.025.025-.027.027c-.029.029-.056.058-.083.088l-.027.029-.02.023-.05.061-.031.038-.023.034-.036.045-.023.032-.038.058-.023.034-.011.016-.065.106,0,.007-.011.02-.043.077-.018.036-.018.036-.018.034c-.014.029-.027.058-.04.086l-.007.016,0,0c-.014.038-.031.076-.043.113l-.009.02-.014.041c-.007.018-.014.038-.02.056l-.013.043-.016.05-.009.034-.014.056c-.005.022-.013.041-.016.063l-.005.023-.007.043-.018.1-.005.027-.005.063,0,.043c0,.047-.005.094-.005.137a.927.927,0,0,0,.283.743.575.575,0,0,0,.079.056l.824.479a.866.866,0,0,1-.362-.8,1.146,1.146,0,0,1,.005-.137Z" transform="translate(-118.637 -427.077)"/><g transform="translate(0.824 0.479)"><path class="aa" d="M120.335,427.514c.686-.4,1.245-.079,1.247.709a2.724,2.724,0,0,1-1.24,2.147c-.687.4-1.245.079-1.247-.709A2.724,2.724,0,0,1,120.335,427.514Z" transform="translate(-119.095 -427.343)"/></g></g><g class="y" transform="translate(1.292 0.808)"><path class="z" d="M120.188,430.139l.011-.088.016-.1.014-.068.016-.063c.007-.031.014-.059.023-.088l.016-.05.032-.1.014-.041.056-.137.007-.016c.018-.04.038-.079.058-.121l.018-.036c.02-.038.04-.076.061-.113l.013-.022c.023-.041.05-.085.077-.126l.023-.036c.02-.031.041-.059.063-.088l.032-.049c.02-.023.038-.047.058-.072l.049-.058c.014-.02.032-.036.047-.054l.083-.088.054-.052.041-.041.07-.059a.356.356,0,0,1,.043-.034c.025-.022.052-.041.077-.061l.038-.027c.04-.027.079-.052.119-.074a1.163,1.163,0,0,1,.157-.079l.049-.02c.031-.011.058-.022.088-.031l.054-.014.052-.011c.022,0,.043-.007.065-.009l.038-.005a.581.581,0,0,1,.079,0h.018a.535.535,0,0,1,.094.011l.022.005a.506.506,0,0,1,.068.02l.02.005c.029.013.056.025.083.04l-.824-.479-.007,0-.061-.031-.013,0-.022-.007-.032-.013-.036-.009-.022-.005-.013,0c-.025,0-.05-.007-.076-.009h-.023c-.018,0-.038,0-.059,0l-.018,0-.038,0-.036,0-.031.007-.05.011-.027.005-.029.011-.088.029-.031.011-.018.009a1.382,1.382,0,0,0-.157.077q-.059.035-.119.076l-.038.029-.077.058-.043.034-.068.063-.043.038-.027.027-.027.027c-.027.029-.054.059-.083.088l-.025.029-.022.025a.751.751,0,0,0-.047.059.21.21,0,0,0-.032.038l-.025.034-.034.045-.025.034-.036.056-.025.034-.009.016-.065.106,0,.007-.013.022c-.014.023-.029.05-.043.077l-.018.034-.018.038-.016.032c-.014.029-.027.058-.041.086l-.005.018,0,0c-.016.036-.031.076-.045.11l-.007.022-.014.04-.022.058-.013.043-.016.05-.009.032-.014.058-.014.063-.007.022-.007.045-.016.1-.005.029-.005.061-.005.043c0,.047-.005.092-.005.139a.939.939,0,0,0,.284.743.687.687,0,0,0,.079.054l.824.479a.864.864,0,0,1-.364-.8c0-.045,0-.094.005-.139Z" transform="translate(-119.355 -427.526)"/><g transform="translate(0.824 0.479)"><path class="aa" d="M121.053,427.963c.686-.4,1.245-.079,1.247.709a2.725,2.725,0,0,1-1.24,2.149c-.686.4-1.245.079-1.247-.711A2.732,2.732,0,0,1,121.053,427.963Z" transform="translate(-119.813 -427.792)"/></g></g></g><g transform="translate(0.347)"><g transform="translate(11.609 12.084)"><g class="y"><path class="z" d="M102.555,420.111l.013-.09c0-.032.011-.067.016-.1l.013-.067.016-.063c.007-.031.016-.061.023-.09l.016-.052c.011-.032.022-.067.034-.1l.014-.041c.016-.045.036-.09.054-.137l.007-.014c.018-.041.038-.083.058-.121l.018-.038c.02-.036.04-.076.061-.112l.013-.022c.025-.043.05-.086.077-.128l.023-.036c.022-.029.041-.059.063-.09l.034-.045.056-.072.049-.059.049-.052a.957.957,0,0,1,.083-.088.488.488,0,0,1,.052-.054l.041-.04c.023-.022.047-.041.07-.061l.043-.036.079-.058.038-.029c.038-.025.077-.052.117-.076s.106-.054.157-.076l.049-.02c.031-.013.059-.022.088-.031s.038-.013.054-.016a.259.259,0,0,1,.052-.009.441.441,0,0,1,.065-.011l.038,0a.608.608,0,0,1,.081,0h.018a.545.545,0,0,1,.092.013l.022,0a.428.428,0,0,1,.068.02l.02.007a.432.432,0,0,1,.083.04l-.824-.479-.005-.005c-.022-.011-.041-.022-.063-.031l-.013,0-.022-.005a.123.123,0,0,0-.032-.013l-.034-.009-.023-.005-.013,0c-.023-.005-.049-.007-.074-.011h-.083l-.02,0-.038,0-.036.005-.031.005-.05.013-.027.005-.029.009a.783.783,0,0,0-.086.029l-.032.013-.018.009a1.134,1.134,0,0,0-.155.077,1.1,1.1,0,0,0-.119.076l-.038.025c-.027.02-.052.04-.079.061l-.041.034c-.023.02-.049.041-.07.061l-.043.04-.025.025-.029.027c-.027.029-.054.058-.081.09l-.027.027-.022.025-.047.059-.032.04-.023.031-.036.049-.023.032-.038.056-.023.036-.011.016c-.022.034-.045.07-.065.106l0,.005-.013.022-.043.076-.016.038-.02.036-.016.032c-.014.027-.027.058-.04.088l-.007.014,0,.005c-.014.038-.031.074-.045.112l-.007.022-.014.04-.02.056-.014.045-.014.05-.009.032-.014.056c-.005.022-.013.041-.016.065l-.007.022-.005.045c-.007.034-.013.067-.018.1l-.005.025-.005.063,0,.043c0,.047-.005.094-.005.137a.924.924,0,0,0,.282.743.587.587,0,0,0,.079.057l.824.477a.867.867,0,0,1-.362-.8,1.144,1.144,0,0,1,0-.137Z" transform="translate(-101.724 -417.496)"/><g transform="translate(0.824 0.478)"><path class="aa" d="M103.42,417.931c.687-.4,1.245-.076,1.247.713a2.725,2.725,0,0,1-1.238,2.147c-.687.4-1.245.077-1.247-.711A2.729,2.729,0,0,1,103.42,417.931Z" transform="translate(-102.182 -417.762)"/></g></g><g class="y" transform="translate(1.292 0.808)"><path class="z" d="M103.275,420.558c0-.027.007-.058.011-.086s.011-.068.018-.1l.013-.067.016-.065c.007-.029.014-.058.023-.088l.014-.05.034-.1.014-.04c.018-.047.036-.092.056-.139l.007-.014c.018-.041.036-.081.056-.122l.018-.034.063-.113.011-.023c.025-.041.05-.083.079-.126l.023-.034.061-.09.034-.047c.02-.023.038-.049.058-.072s.032-.04.047-.059l.049-.052.083-.09.054-.05.041-.041.07-.061.041-.034c.027-.022.052-.04.079-.059l.038-.027a1.212,1.212,0,0,1,.119-.076,1.038,1.038,0,0,1,.157-.077c.016-.007.032-.014.049-.02s.059-.023.086-.032a.364.364,0,0,1,.056-.013.508.508,0,0,1,.05-.013c.023,0,.045-.007.067-.009l.038,0a.386.386,0,0,1,.079,0h.018a.559.559,0,0,1,.094.013l.02,0,.068.018.023.009a.55.55,0,0,1,.081.04l-.824-.479-.007-.005A.663.663,0,0,0,104.5,418l-.013-.005-.02-.007-.032-.011-.036-.009-.022-.005-.013,0a.477.477,0,0,0-.076-.011h-.081l-.022,0-.038,0-.034.005-.032.005-.05.011-.027.005-.029.011-.086.029-.031.013-.018.007a1.439,1.439,0,0,0-.157.079c-.04.023-.079.047-.119.074l-.038.029c-.025.018-.052.038-.077.059l-.043.034-.07.061-.041.039-.027.025-.027.027-.083.088-.027.029-.02.027-.049.058-.031.04-.025.032-.034.047-.025.032-.036.056-.025.036-.011.014-.065.106,0,.007-.011.023-.043.074-.018.036-.02.038-.016.032c-.013.029-.027.058-.04.088l-.007.016,0,0c-.016.036-.031.076-.045.111l-.009.022-.014.04-.02.058-.013.043-.016.05-.011.032-.013.056-.016.065-.005.022-.007.045c-.007.034-.013.068-.016.1l-.005.027-.007.061,0,.043c0,.047-.005.094-.005.137a.926.926,0,0,0,.284.745.509.509,0,0,0,.079.054l.824.479a.864.864,0,0,1-.363-.8,1.164,1.164,0,0,1,.005-.137Z" transform="translate(-102.442 -417.945)"/><g transform="translate(0.824 0.479)"><path class="aa" d="M104.14,418.382c.686-.4,1.245-.077,1.247.711a2.73,2.73,0,0,1-1.24,2.149c-.687.394-1.245.077-1.247-.713A2.725,2.725,0,0,1,104.14,418.382Z" transform="translate(-102.9 -418.211)"/></g></g></g><g transform="translate(18.501 36.883)"><g class="y"><path class="z" d="M106.387,433.892l.011-.088c0-.034.011-.065.016-.1l.014-.068c0-.022.009-.041.014-.063l.023-.088.016-.052c.011-.034.022-.067.034-.1l.014-.042c.016-.047.036-.092.054-.137l.007-.014.058-.122.018-.036c.02-.038.04-.076.061-.113l.013-.022c.025-.043.05-.085.077-.126l.023-.036.063-.09.034-.047c.018-.023.038-.047.056-.072l.049-.059.049-.052c.027-.031.054-.059.083-.088l.052-.052.041-.04c.023-.022.047-.041.072-.063l.041-.034.077-.059.04-.027a.912.912,0,0,1,.117-.074,1.181,1.181,0,0,1,.158-.079l.047-.02.088-.031a.513.513,0,0,1,.056-.014l.05-.011c.023,0,.045-.009.065-.011l.038,0c.029,0,.054,0,.081,0h.018a.845.845,0,0,1,.092.013l.022.005a.44.44,0,0,1,.068.02l.02.005a.508.508,0,0,1,.083.04l-.824-.479-.005,0a.512.512,0,0,0-.063-.031l-.013,0-.022-.009-.032-.011-.034-.009-.023,0-.011,0c-.025,0-.05-.007-.076-.009h-.023c-.02,0-.04,0-.059,0l-.02,0-.038,0-.036,0-.031.007a.277.277,0,0,0-.05.011l-.027.005-.029.009a.853.853,0,0,0-.086.031l-.032.011-.016.009a1.561,1.561,0,0,0-.157.077q-.059.035-.119.076l-.038.029c-.027.018-.052.036-.079.058l-.041.034c-.023.02-.047.041-.07.063l-.043.038-.025.025-.027.027-.083.09-.027.029-.022.025q-.024.027-.049.059l-.031.038-.023.034-.036.045-.023.034c-.013.016-.025.036-.038.056l-.023.036-.011.014c-.022.036-.045.068-.065.106l0,.007-.013.022c-.014.023-.029.05-.041.076l-.018.036-.02.036-.016.034c-.014.029-.027.058-.04.086l-.007.016,0,.005c-.014.036-.031.074-.045.112l-.007.02-.014.041-.02.056-.014.043-.014.05-.009.032-.014.057-.016.063-.005.023-.007.043c-.007.034-.013.068-.018.1l-.005.027-.005.063,0,.043c0,.047-.005.092-.005.137a.929.929,0,0,0,.283.743.788.788,0,0,0,.079.056l.824.479a.87.87,0,0,1-.362-.8c0-.043,0-.09,0-.137Z" transform="translate(-105.554 -431.277)"/><g transform="translate(0.824 0.48)"><path class="aa" d="M107.25,431.715c.687-.4,1.247-.079,1.249.709a2.735,2.735,0,0,1-1.24,2.149c-.687.4-1.245.079-1.247-.713A2.719,2.719,0,0,1,107.25,431.715Z" transform="translate(-106.012 -431.544)"/></g></g><g class="y" transform="translate(1.292 0.81)"><path class="z" d="M107.105,434.342c0-.031.007-.059.013-.09a.869.869,0,0,1,.016-.1l.013-.068.016-.063c.007-.031.014-.059.023-.09l.016-.05.032-.1.014-.04c.018-.047.036-.092.056-.135l.007-.018c.018-.039.036-.081.056-.12l.02-.036c.02-.04.04-.076.061-.113l.013-.02c.023-.045.05-.086.077-.13l.023-.034.061-.09.036-.045c.018-.025.036-.049.056-.072l.049-.061.047-.052c.027-.029.054-.059.083-.088l.054-.054.041-.04.07-.061.043-.034.077-.058.038-.029a1.183,1.183,0,0,1,.119-.074,1.269,1.269,0,0,1,.157-.079l.049-.02c.029-.011.059-.02.086-.029s.038-.013.056-.016l.052-.011a.4.4,0,0,1,.065-.011l.038,0a.592.592,0,0,1,.079,0h.018a.53.53,0,0,1,.094.013l.022,0,.067.022.023.007a.408.408,0,0,1,.081.038l-.824-.479-.007,0a.67.67,0,0,0-.063-.031l-.013,0-.02-.009-.032-.011-.036-.009-.022,0-.013,0a.347.347,0,0,0-.076-.007h-.022l-.061,0-.02,0-.038,0-.034,0-.031.009a.269.269,0,0,0-.052.011l-.027.005-.027.009c-.029.009-.058.02-.088.032l-.031.009-.018.009c-.05.023-.1.047-.157.077s-.079.05-.119.076l-.038.027c-.025.02-.052.038-.077.059l-.041.036a.761.761,0,0,0-.072.061l-.041.038-.027.025-.027.029-.083.088-.027.029-.02.025q-.024.027-.049.059l-.031.036-.025.034-.034.047-.023.034-.038.054-.025.038-.011.016c-.022.034-.043.068-.063.1l0,.007-.013.022-.043.076-.016.034-.02.04-.016.031c-.014.031-.029.059-.04.088l-.009.016,0,.005c-.016.036-.031.074-.045.11l-.009.022-.014.041c-.005.018-.014.036-.02.056l-.013.043-.016.05-.009.032-.014.056-.016.067-.005.02-.007.047c-.005.032-.013.067-.016.1l-.005.027-.007.061,0,.047c0,.045-.005.09-.005.137a.92.92,0,0,0,.284.741.519.519,0,0,0,.079.056l.824.479a.871.871,0,0,1-.363-.8c0-.045,0-.092.005-.137Z" transform="translate(-106.272 -431.727)"/><g transform="translate(0.824 0.478)"><path class="aa" d="M107.97,432.164c.687-.4,1.245-.079,1.247.709a2.735,2.735,0,0,1-1.24,2.149c-.687.4-1.245.079-1.247-.713A2.724,2.724,0,0,1,107.97,432.164Z" transform="translate(-106.73 -431.993)"/></g></g></g><g transform="translate(0 8.298)"><g class="y"><path class="ab" d="M101.863,416.035l-.009,3.509a1.028,1.028,0,0,0,.284.675l.011-3.511A1.023,1.023,0,0,1,101.863,416.035Z" transform="translate(-90.011 -414.879)"/><path class="ac" d="M119.092,417.076a2.6,2.6,0,0,1-.117.466l-.074.121a1.282,1.282,0,0,1-.126.279l-.007.038a1.868,1.868,0,0,1-.184.2,2.335,2.335,0,0,1-.223.171c-.038.023-.067.054-.106.076l-.011,3.513.036-.02c.027-.016.047-.036.072-.054a1.836,1.836,0,0,0,.223-.164l.034-.023a1.671,1.671,0,0,0,.146-.158l0,0,.007-.009c.029-.038.056-.077.079-.115a1.039,1.039,0,0,0,.047-.1l0-.009,0,0c.013-.036.286-.074.293-.108s.274-.072.274-.108v-.932h-.45Z" transform="translate(-76.908 -414.047)"/><g transform="translate(12.126 1.83)"><path class="ab" d="M109.739,425.162l-.01,3.509-7.717-8.751.011-3.511Z" transform="translate(-102.012 -416.409)"/></g><g transform="translate(29.111 4.387)"><path class="ab" d="M123.687,417.83l-.011,3.509-12.226,7.1.011-3.511Z" transform="translate(-111.45 -417.83)"/></g><g class="y" transform="translate(29.514 12.673)"><g class="ad"><g class="y" transform="translate(-0.115 0.046)"><path class="ae" d="M111.61,422.5v0Z" transform="translate(-111.61 -422.46)"/><path class="ab" d="M111.7,422.462l-.011,3.511a1.9,1.9,0,0,1-.016.2l.011-3.509a1.935,1.935,0,0,0,.016-.2Z" transform="translate(-111.559 -422.459)"/></g></g></g><path class="ac" d="M107.5,424.3a6.11,6.11,0,0,1-.732-.349,4.3,4.3,0,0,1-.747-.535l-.011,3.511a4.27,4.27,0,0,0,.747.533,5.973,5.973,0,0,0,.732.351c.029.011.05.027.079.038.142.056.29.108.437.155l.009-3.509C107.839,424.436,107.67,424.368,107.5,424.3Z" transform="translate(-86.688 -408.978)"/><g class="y" transform="translate(25.6 15.18)"><g class="af"><path class="ac" d="M110.638,424.17a8.135,8.135,0,0,1-1,.248l-.128.022-.011,3.511c.043-.009.085-.014.128-.023a7.953,7.953,0,0,0,1-.247,7.169,7.169,0,0,0,.869-.344l.011-3.509A7.27,7.27,0,0,1,110.638,424.17Z" transform="translate(-109.499 -423.828)"/></g></g><g transform="translate(2.467 14.438)"><path class="ab" d="M113.51,423.416l-.011,3.511-16.855,1.547.01-3.511Z" transform="translate(-96.644 -423.416)"/></g><path class="ab" d="M97.252,424.834l-.041,0a3.56,3.56,0,0,1-.448-.052l-.032-.005a3.518,3.518,0,0,1-.391-.106c-.023-.009-.047-.014-.07-.023a2.683,2.683,0,0,1-.362-.166,1.206,1.206,0,0,1-.6-.677.765.765,0,0,1-.027-.209l-.011,3.511a.765.765,0,0,0,.029.207,1.194,1.194,0,0,0,.6.677,2.119,2.119,0,0,0,.308.149l.052.016.072.025c.045.013.088.031.135.045.074.02.148.038.223.054l.031.005.032.005c.05.011.1.02.148.027q.1.014.205.022c.032,0,.065,0,.1.005l.043,0c.022,0,.045,0,.067,0q.108,0,.216,0c.072,0,.144-.007.214-.013l.009-3.513A3.55,3.55,0,0,1,97.252,424.834Z" transform="translate(-95.273 -408.837)"/><g transform="translate(27.597 15.18)"><path class="ab" d="M126.221,428.424l-.01,3.509-15.6-4.6.01-3.509Z" transform="translate(-110.609 -423.828)"/></g><g class="y" transform="translate(43.199 18.664)"><g class="ag"><path class="ac" d="M122.354,426.014a.924.924,0,0,1-.058.121,1.025,1.025,0,0,1-.085.126l-.038.047c-.031.034-.065.068-.1.1a1.718,1.718,0,0,1-.284.211,2.291,2.291,0,0,1-.5.225,2.94,2.94,0,0,1-.408.1q-.135.024-.275.038c-.076.007-.155.013-.232.016s-.142,0-.214,0-.139-.005-.207-.011-.135-.013-.2-.023a2.022,2.022,0,0,1-.209-.036q-.116-.024-.227-.054l-.022-.007-.011,3.509.022.009c.076.02.149.038.227.054s.14.027.211.038.135.016.2.022.137.009.205.011.144,0,.214,0,.157-.007.232-.014c.094-.009.185-.022.277-.04a3.291,3.291,0,0,0,.409-.1,2.365,2.365,0,0,0,.5-.227,1.73,1.73,0,0,0,.286-.211,1.272,1.272,0,0,0,.1-.1l.04-.049a.97.97,0,0,0,.085-.126.808.808,0,0,0,.056-.121.546.546,0,0,0,.034-.117.7.7,0,0,0,.014-.121l.009-3.513a.69.69,0,0,1-.013.122A.98.98,0,0,1,122.354,426.014Z" transform="translate(-119.279 -425.757)"/></g></g><g transform="translate(22.938 15.792)"><path class="ac" d="M110.692,424.168l-.011,3.511-2.661,9.954.01-3.509Z" transform="translate(-108.02 -424.168)"/></g><path class="ab" d="M109.83,430.022l-.023.034a1.106,1.106,0,0,1-.158.189l-.009.011c-.018.016-.041.029-.059.043a1.658,1.658,0,0,1-.2.151c-.014.009-.032.016-.049.025a2.533,2.533,0,0,1-.4.178c-.041.014-.083.029-.126.041a2.106,2.106,0,0,1-.221.054,1.72,1.72,0,0,1-.2.041c-.031.005-.061-.176-.092-.171-.117.014-.234-.155-.356-.155h-.027c-.135,0-.274.185-.414.173a3.956,3.956,0,0,1-.675-.036c-.009,0-.014.041-.023.04a2.511,2.511,0,0,1-.52-.2,1.054,1.054,0,0,1-.63-.864l-.009,3.516a1.072,1.072,0,0,0,.63.878,2,2,0,0,0,.3.148c.068.027.14.05.216.074l.022.007.02.007a2.223,2.223,0,0,0,.234.056c.076.016.155.031.236.043.061.007.122.016.185.022l.049.005c.063,0,.128-.48.193-.479s.115-.489.175-.489h.043c.079,0,.158.48.234.471.036,0,.07.234.1.23s.063.113.094.11.052.054.077.049c.041-.007.077.011.117,0,.077-.018.151-.02.223-.04.022-.007.045,0,.067-.009s.038-.016.058-.023a2.45,2.45,0,0,0,.4-.176.332.332,0,0,1,.038-.014l.009-.007a1.907,1.907,0,0,0,.205-.151c.016-.014.04-.027.054-.042l0,0,.011-.009a1.317,1.317,0,0,0,.119-.128c.014-.02.027-.041.041-.061l.023-.034.02-.031a.806.806,0,0,0,.056-.121.353.353,0,0,0,.023-.077l.011-3.509A.794.794,0,0,1,109.83,430.022Z" transform="translate(-86.984 -404.049)"/><path class="ab" d="M106.5,432.853a2.8,2.8,0,0,0,1.668-.1c.9-.342-1.076-1.368-1.076-1.368Z" transform="translate(-86.294 -402.61)"/><g transform="translate(0.01)"><path class="ah" d="M136.726,418.1c.869.5.72,1.191-.11,1.677l-12.226,7.1a1.915,1.915,0,0,1,.4,1.436l15.623,4.628a2.665,2.665,0,0,1,.543.227c.639.369.828.947.4,1.434a3.018,3.018,0,0,1-2.885.561l-15.6-4.6a7.541,7.541,0,0,1-2,.612l-2.663,9.955c-.176.671-1.265,1.13-2.433,1.027a3,3,0,0,1-1.218-.354c-.468-.27-.714-.66-.6-1.067l2.636-9.836a6.5,6.5,0,0,1-1.247-.543,4.294,4.294,0,0,1-.747-.535l-16.858,1.546a3.219,3.219,0,0,1-1.841-.344,1.206,1.206,0,0,1-.6-.677c-.189-.7.606-1.328,1.767-1.436l16.78-1.528a3.1,3.1,0,0,1,1.269-1.418l-7.716-8.753c-.542-.61-.371-1.492,1.026-1.6a2.571,2.571,0,0,1,2.361.126,1.627,1.627,0,0,1,.4.319l7.652,8.726a9.042,9.042,0,0,1,2.617.245l12.094-7.027A3.645,3.645,0,0,1,136.726,418.1Z" transform="translate(-95.279 -415.393)"/></g></g></g><g transform="translate(19.323 12.966)"><g transform="translate(0.007 5.062)"><path class="ab" d="M114.063,421.6c1.848,1.069,1.85,2.8.013,3.867a7.35,7.35,0,0,1-6.665,0c-1.846-1.069-1.864-2.8-.027-3.867A7.369,7.369,0,0,1,114.063,421.6Z" transform="translate(-106.015 -420.799)"/></g><rect class="ab" width="9.443" height="5.001" transform="translate(0 2.732)"/><g transform="translate(0.007)"><path class="ah" d="M114.063,418.788c1.848,1.065,1.85,2.795.013,3.864a7.339,7.339,0,0,1-6.665,0c-1.846-1.069-1.864-2.8-.027-3.864A7.358,7.358,0,0,1,114.063,418.788Z" transform="translate(-106.015 -417.987)"/></g></g><g transform="translate(20.985)"><g transform="translate(0.004 13.619)"><path class="ab" d="M112.157,418.869a1.325,1.325,0,0,1,.009,2.507,4.758,4.758,0,0,1-4.324,0,1.325,1.325,0,0,1-.018-2.507A4.777,4.777,0,0,1,112.157,418.869Z" transform="translate(-106.937 -418.349)"/></g><rect class="ab" width="6.126" height="13.579" transform="translate(0 1.774)"/><g transform="translate(0.004)"><path class="ah" d="M112.157,411.3a1.326,1.326,0,0,1,.009,2.509,4.759,4.759,0,0,1-4.324,0,1.326,1.326,0,0,1-.018-2.509A4.788,4.788,0,0,1,112.157,411.3Z" transform="translate(-106.937 -410.781)"/></g></g></g></g><g transform="translate(0)"><g transform="translate(0 5.051)"><path class="ab" d="M96.67,412.712c-1.684,1.4-3.5,8.011,2.089,10.513,6.023,2.7,22.434,10.54,32.145,9.151a38.326,38.326,0,0,0,12.726-4.767c4.009-2.316,7.277-5.064,8.271-7.356.409-.941,1.148-4.589.292-6.862-2.062-5.458-12.123-8.875-15.983-11.787-4.3-3.245-9.671-1.558-11.358-.585a3.646,3.646,0,0,0-.324.212c-4.15,3.164-11.349,7.38-12.467,8.031s-8.429,4.8-13.9,7.194C98.043,416.506,96.8,412.635,96.67,412.712Z" transform="translate(-94.987 -399.704)"/></g><g transform="translate(0.512 0.263)"><path class="ai" d="M97.562,413.985c-1.69.974-4.618,4.079.97,6.581,6.023,2.7,22.435,10.54,32.145,9.149a38.247,38.247,0,0,0,12.726-4.767c4.009-2.314,7.277-5.062,8.271-7.355,2.431-5.62-11.053-15.152-15.692-18.65-4.3-3.245-9.671-1.558-11.358-.583a2.731,2.731,0,0,0-.324.212c-4.15,3.164-11.349,7.38-12.467,8.029s-8.429,4.8-13.9,7.194A3.8,3.8,0,0,0,97.562,413.985Z" transform="translate(-95.271 -397.043)"/></g><g transform="translate(2.67)"><path class="aj" d="M98.635,412.907c-1.594.921-4.364,3.853.916,6.217,5.692,2.55,21.2,9.96,30.376,8.648a36.145,36.145,0,0,0,12.026-4.506c3.792-2.188,6.88-4.783,7.819-6.95,2.3-5.312-10.446-14.321-14.83-17.624-4.065-3.066-9.14-1.472-10.734-.551a3.161,3.161,0,0,0-.306.2c-3.921,2.991-10.725,6.977-11.781,7.592s-7.966,4.538-13.138,6.8A3.565,3.565,0,0,0,98.635,412.907Z" transform="translate(-96.47 -396.898)"/></g></g></g><path class="v" d="M123.162,421.41c-2.836-3.338-6.475-5.758-9.555-8.866-3.653-3.689-9.028-6.662-11.312-11.506-.689-1.463-1.1-4.763.885-6.867,1.148-1.216,3.765-3.705,4.515-2.8.785.938,3.065,1.537,3.873,2.248,1.5,1.328,10.9,8.746,14,11.036,2.536,1.873,4.024,3.14,6.734,5.337,0,0,3.568,1.6-1.965,6.871S123.576,421.889,123.162,421.41Z" transform="translate(23.271 -312.754)"/><path class="w" d="M130.336,402.1c1.967-.806,3.941,2.739,3.811,4.166-.356,3.9-7.445,8.6-10.558,10.218-3.37,1.753-8.5,3.509-11.384,3.37-1.445-.068-4.58-1.609-5.3-2.9-1.3-2.332.326-9.109,1.771-11.558a8.447,8.447,0,0,1,2.041-2.237Z" transform="translate(27.032 -304.117)"/><path class="w" d="M119.324,424.124a90.9,90.9,0,0,1-11.69-7.873c-3.973-3.336-9.595-5.811-12.309-10.43-.819-1.4-1.531-4.646.259-6.921,1.031-1.317,3.072-3.1,4.243-3.2,1.871-.167,3.189,1.252,4.058,1.886,1.616,1.188,11.652,7.716,14.95,9.721,2.692,1.634,9.6,5.951,12.967,9.183,0,0,2.523,3.41-1.951,5.6C124.127,424.895,119.872,424.439,119.324,424.124Z" transform="translate(17.47 -309.146)"/><path class="w" d="M130.336,402.1c1.967-.806,3.941,2.739,3.811,4.166-.356,3.9-7.445,8.6-10.558,10.218-3.37,1.753-8.5,3.509-11.384,3.37-1.445-.068-4.58-1.609-5.3-2.9-1.3-2.332.326-9.109,1.771-11.558a8.447,8.447,0,0,1,2.041-2.237Z" transform="translate(27.032 -304.117)"/><path class="ak" d="M120.973,458.174l96.338-55.99v-3.371L128.6,347.6,32.264,403.583v3.379Z" transform="translate(-32.264 -347.596)"/><path class="al" d="M74.246,383.262l-12.858,7.423,17.2,9.931,12.858-7.425Z" transform="translate(-8.979 -319.08)"/><path class="am" d="M120.973,458.174l96.338-55.99v-3.371L128.6,347.6,32.264,403.583v3.379Z" transform="translate(-32.264 -347.596)"/><path class="an" d="M120.969,454.79,217.294,398.8l-88.7-51.209L32.269,403.577Z" transform="translate(-32.259 -347.596)"/><g transform="translate(104.196 38.095)"><path class="ao" d="M94.413,382.246a12.187,12.187,0,0,0,.166,1.544,15.1,15.1,0,0,1-.664,2.7,5.19,5.19,0,0,0,.185,2.955c.5,1.083,1.717,3.718,2.872,4.135,2.579.938,3.291-3.36,3.73-5.035.907-3.477-1-9.444-5.758-8.215Z" transform="translate(-87.269 -359.647)"/><path class="j" d="M105.814,368.766l12.63,25.388L102.8,403.19,90.166,377.8Z" transform="translate(-90.166 -368.766)"/><path class="d" d="M90.939,377.174l13.488-7.785,11.359,22.831L102.3,400.008Z" transform="translate(-89.548 -368.267)"/><path class="ap" d="M93.055,373.863l5.986-3.453.887,1.861-5.985,3.455Z" transform="translate(-87.856 -367.451)"/><path class="ao" d="M97.952,382.637a3.717,3.717,0,0,0-.214-.671c-.961.05-1.038,1.118-1.359,1.755s-.92,1.02-1.08,1.771c-.187.864.391,1.351.391,2.159s-.412,1.463-.489,2.264c-.173,1.771,1.958,3.538,2.775,1.353a6.292,6.292,0,0,0-.146-4.988c-.45-.977-.162-1.159.144-2.147.189-.606.389-1.861-.236-2.167a5.549,5.549,0,0,0-.376,1.164Z" transform="translate(-86.149 -358.212)"/></g><g transform="translate(112.611 28.731)"><path class="aq" d="M126.691,384.59c1.56,7.722,3.493,17.853.651,18.431-1.065.214-5.359.547-5.773-1.947-.97-5.839-3.855-10.649-4.83-15.481-1.562-7.72.139-9.48,2.978-10.059S125.127,376.866,126.691,384.59Z" transform="translate(-77.81 -354.066)"/><path class="ar" d="M128.014,396.86c-7.092-1.988-19.418-7.651-18.675-10.124.281-.923.961-3.844,3.3-3.574,3.669.419,11.794,4.842,19.206,6.685,1.621.4,2.564,1.884,1.819,4.353S133.034,398.265,128.014,396.86Z" transform="translate(-83.278 -347.906)"/><path class="aq" d="M115.137,379.6a17.611,17.611,0,0,0-6.955,5.381c-1.963,2.543-1.855,8.243-1.78,8.99.243,2.422,1.486,26.26.909,28.407-.9,3.356-1.542,9.136,2.917,10.873a17.24,17.24,0,0,0,8.989.6c5.318-.666,12.982-4.878,12.528-7.513-.846-4.9-1.074-26.2-.56-28.9s3.149-15.348-.414-20.307a4.437,4.437,0,0,0-3.8-1.621C122.443,376.023,115.893,379.388,115.137,379.6Z" transform="translate(-85.626 -354.028)"/><path class="as" d="M109.988,415.767c-.65-1.177,2.514-26.073,2.514-26.073l-5.524,5.9c.3,6.952.511,14.281.2,15.427-.9,3.356-1.542,9.136,2.917,10.873.047.018.09.027.137.043C110.5,419.539,110.357,416.438,109.988,415.767Z" transform="translate(-85.496 -342.669)"/><g transform="translate(14.772 30.095)"><path class="aj" d="M116.351,393.331c-2.471,8.854-5.262,20.721-8.215,19.966-1.1-.288-5.857-2.307-4.977-5.129,2.068-6.59,1.823-13.021,3.369-18.555,2.469-8.854,4.963-9.881,7.912-9.125S118.826,384.479,116.351,393.331Z" transform="translate(-103.051 -380.286)"/></g><path class="aj" d="M108.1,408.1c-5.847-4.866-14.925-15.9-13-18.522.722-.984,2.8-4.157,4.92-3.005,3.324,1.8,8.967,9.886,15.191,14.7,1.359,1.049,3.543,1.1,2.4,4.3C116.519,408.63,112.239,411.54,108.1,408.1Z" transform="translate(-94.842 -345.364)"/><g transform="translate(24.491)"><g transform="translate(0 3.268)"><path class="at" d="M109.755,367.266c.038,1.238-.88,2.8-1.141,4a2.339,2.339,0,0,0,.054,1.843,4.877,4.877,0,0,1,.076,3.331,8.19,8.19,0,0,0,.479,4.178c.306,1.06.471,2.316,1.434,2.96,2.4,1.605,5.1.657,7.529-.184,2.4-.842,2-5.1,2.746-7.1,1.344-3.6.349-8.627-3.613-10.192a10.4,10.4,0,0,0-6.505-.347c-.63.239.878.826,1.467,1.508Z" transform="translate(-108.452 -365.378)"/></g><g transform="translate(0 3.268)"><path class="au" d="M109.755,367.266c.038,1.238-.88,2.8-1.141,4a2.339,2.339,0,0,0,.054,1.843,4.877,4.877,0,0,1,.076,3.331,8.19,8.19,0,0,0,.479,4.178c.306,1.06.471,2.316,1.434,2.96,2.4,1.605,5.1.657,7.529-.184,2.4-.842,2-5.1,2.746-7.1,1.344-3.6.349-8.627-3.613-10.192a10.4,10.4,0,0,0-6.505-.347c-.63.239.878.826,1.467,1.508Z" transform="translate(-108.452 -365.378)"/></g><g transform="translate(4.901 15.439)"><path class="au" d="M111.176,376.186s1.575,4.762.606,6.1c-.376.516,1.542,1.648,3.334,1.686,2.85.058,6.142-1.488,5.177-3.849-.518-1.27-1.882-2.523-1.019-7.673C119.549,370.827,111.176,376.186,111.176,376.186Z" transform="translate(-111.176 -372.142)"/></g><path class="av" d="M114.111,375.694a13.02,13.02,0,0,1-2.476.452c.245,1.3.358,2.7-.1,3.327-.252.345.525.957,1.6,1.341.387-.164.569-.3.473-.363C113.094,380.122,115.759,375.176,114.111,375.694Z" transform="translate(-106.026 -353.893)"/><g transform="translate(1.01)"><path class="aw" d="M121.645,365.263c-3.729-2.521-8.74-2.177-11.146.623a6.47,6.47,0,0,0-1.429,3.644c-.419.731,1.62.63,2.111,3.577,2.523,15.208,9.635,9.739,9.865,9.2,1.825-4.33,3.048-3.338,3.887-5.937C126.2,372.441,126.876,368.809,121.645,365.263Z" transform="translate(-109.014 -363.562)"/></g><path class="aw" d="M117.739,373.313c-3.622-.749-7.68-5.04-7.68-5.04l0,0a5.3,5.3,0,0,1,.293,1.064c2.523,15.208,9.635,9.739,9.865,9.2,1.825-4.33,3.048-3.338,3.887-5.937.128-.394.247-.783.356-1.171A8.2,8.2,0,0,1,117.739,373.313Z" transform="translate(-107.171 -359.795)"/><g transform="translate(3.283 12.217)"><path class="au" d="M112.557,373.435c-.515,1.333-.812,2.571-1.391,2.348a2.289,2.289,0,0,1-.7-2.816c.52-1.332.8-2.608,1.427-2.616C113.074,370.328,113.076,372.115,112.557,373.435Z" transform="translate(-110.277 -370.351)"/></g></g><path class="aj" d="M124.075,376.948a3.3,3.3,0,0,1-1.184,4.067,8.025,8.025,0,0,1-4.3,2.228c-2.017.263-6.635-1.429-7.284-1.5a14.161,14.161,0,0,0-2.053-.151c1.035-1,2.183-.981,3.223-2.472.162-.23.8-1.1,1.083-1.163a1.451,1.451,0,0,0,.4.914,4.214,4.214,0,0,0,1.677.875c1.425.531,4.186.363,5.222-.774,1.377-1.519.385-2.616.124-3.388,1.4.282,2.625.594,3.084,1.364Z" transform="translate(-83.318 -353.95)"/></g></g><path class="l" d="M53.313,354.511c2.107,8.312,7.31,23.021,10.241,22.276,1.1-.279,5.037-5.89,4.268-8.531-1.785-6.19-2.694-12.039-4.009-17.234-2.105-8.31-5.2-9.366-8.136-8.621S51.207,346.2,53.313,354.511Z" transform="translate(10.682 14.261)"/><path class="l" d="M60.44,367c8.089,1.2,27.515-4.587,27.693-7.409.067-1.056.489-4.31-2.046-4.931-3.982-.975-16.151,2.678-24.572,1.735-1.843-.209-3.853,3.313-4.031,6.134S57.933,366.619,60.44,367Z" transform="translate(14.775 24.084)"/><path class="k" d="M60.44,365.21c7.966,1.179,26.91-4.412,27.658-7.274-.833-.493-1.857-1.566-2-1.1-.646,2.2-20.28,5.785-22.274,6s-3.615-1.4-5.992-3.961v0a8.429,8.429,0,0,0-.353,1.864C57.307,363.56,57.933,364.834,60.44,365.21Z" transform="translate(14.775 25.869)"/><path class="h" d="M80.877,353.437A34.586,34.586,0,0,1,82.216,361c.176,2.411.99,3.624-.054,5.89-.936,2.03-5.436,2.744-5.688.752-.426-3.406-4.589-7.972-4.553-15.073.007-1.555.389-7.13,2.791-7.04S78.822,346.684,80.877,353.437Z" transform="translate(26.34 16.918)"/><path class="i" d="M72.11,348.058a20.146,20.146,0,0,0-.189,2.487c-.022,4.583,1.7,8.109,3.043,10.948a2.883,2.883,0,0,0,.794-.99c.68-1.607-2.192-8.211-2.787-10.619A7.353,7.353,0,0,0,72.11,348.058Z" transform="translate(26.34 18.942)"/><g transform="translate(190.994 412.663)"><path class="u" d="M123.454,376.3v1.026l4,2.309,6.745-3.894v-1.03Z" transform="translate(-123.454 -372.409)"/><path class="f" d="M130.2,373.434l-6.742,3.9,4,2.306,6.745-3.894Z" transform="translate(-123.454 -373.434)"/></g><g transform="translate(99.31 374.254)"><path class="q" d="M85.712,355.162a.287.287,0,0,0-.268-.05c-.869.214-1.137,1-1.477,1.672a2.706,2.706,0,0,1-.691,1.062c-.014.011-.023.027-.041.036a3.232,3.232,0,0,1-.551.153,5.708,5.708,0,0,0-1.675,1.258c-.117.077-.218.144-.281.194a5.357,5.357,0,0,1-1.825.495,7.472,7.472,0,0,1-3.041-.729.777.777,0,0,1,.31-1.382,3.46,3.46,0,0,1,1.123-.005c.38.027,1.578.367,2.014.124,0,0,.371-.227.731-.5.43-.322.684-.434.939-.624-.243-.049-.6-.155-.734-.171-.441-.038-.9.022-1.341-.011a4.776,4.776,0,0,1,.531-.241c.133-.074.372-.347.515-.353a3.072,3.072,0,0,1,.6.265c.144.065.3.135.461.2.041.013.081.032.119.043l-.011-.011c.083.018.16.034.225.041a5.445,5.445,0,0,0,1.8-.193c.464-.113,1.17-.374,1.046-1-.155-.77-1.686-.776-2.28-.956a2.091,2.091,0,0,1-.763-.491,1.632,1.632,0,0,0-1-.551,1.4,1.4,0,0,0-.943.326c-.31.239-.576.56-.9.83-.018.014-.036.027-.052.038l.02.009.011.005h-.014c-.05.092-.108.18-.173.275-.362.536-2.208,1.416-2.949.9v0c-.252.119-.506.239-.761.338-.765.3-1.5.619-1.755,1.492a3.923,3.923,0,0,0,.81,3.435,7.239,7.239,0,0,0,2.262,1.019c.043.016.1.036.157.054.212.074.5.153.821.232.034.009.068.014.1.022a6.2,6.2,0,0,0,1.774.227l.025-.005c.821-.022,2.487-.115,3.4-.248a3.777,3.777,0,0,0,.414-.074,3.64,3.64,0,0,0,1.8-1.3A2.543,2.543,0,0,0,85,359.774a4.7,4.7,0,0,0,.284-1.271l.022-.016a1.36,1.36,0,0,0,.417-1C85.782,357.077,86.114,355.493,85.712,355.162ZM81.8,361.606a1.349,1.349,0,0,1-.317.171c-.414.13-.869.313-1.335.475a5.771,5.771,0,0,1-1.508.363,2.228,2.228,0,0,1-.959-.113,1.782,1.782,0,0,1-.248-.112c-.592-.333-2.154-.587-2.458-1.31a.692.692,0,0,1,.684-1.022c.525.058.588.281,1.024.468.328.142.824.058,1.18.164.414.124.687.4,1.1.29s1.515-.4,2.71-.691l.007-.023c.054,0,.112-.013.164-.018.337-.079.675-.164,1.006-.241a11.967,11.967,0,0,0,1.36-.743c.1-.056.194-.122.3-.184A7.03,7.03,0,0,1,81.8,361.606Z" transform="translate(-72.504 -351.011)"/><g transform="translate(2.388)"><path class="ao" d="M77.117,358.763a6.2,6.2,0,0,1-1.774-.227c-.029,0-.061,0-.094,0l0-.025c-.324-.079-.608-.158-.821-.232-.232.148-.1.4.077.524a5.61,5.61,0,0,0,1.323.446,2.7,2.7,0,0,0,1.407.308,10,10,0,0,0,1.821-.308,8.494,8.494,0,0,0,1.317-.644c.038-.022.1-.054.173-.1-.914.133-2.58.227-3.4.248Z" transform="translate(-73.456 -347.138)"/><path class="ao" d="M83.1,353.843l.043,0c-.788-.565-2.338-1.427-3.385-1.143a1.486,1.486,0,0,1-1.094.045c-.4-.117-.74-.324-1.146-.477a2.079,2.079,0,0,0-1.141-.142c-.527.205-.756,1.236-.918,1.7-.268.785-2.339,2.379-1.369,3.061v0c.741.516,2.588-.363,2.949-.9a2.88,2.88,0,0,0,.157-.29c.007,0,.086-.142.211-.3-.05.083-.1.167-.158.266.326-.27.592-.59.9-.83a1.4,1.4,0,0,1,.943-.326,1.632,1.632,0,0,1,1,.551,2.091,2.091,0,0,0,.763.491c.594.18,2.125.185,2.28.956.124.626-.581.887-1.046,1a5.446,5.446,0,0,1-1.8.193c-.065-.007-.142-.023-.225-.041l.011.011c-.038-.011-.077-.031-.119-.043-.16-.063-.317-.133-.461-.2a3.074,3.074,0,0,0-.6-.265c-.142.005-.382.279-.515.353a4.783,4.783,0,0,0-.531.241c.443.032.9-.027,1.341.011.13.016.491.122.734.171-.256.191-.509.3-.939.624-.36.27-.731.5-.731.5-.435.243-1.634-.1-2.014-.124a3.459,3.459,0,0,0-1.123.005.777.777,0,0,0-.31,1.382,7.471,7.471,0,0,0,3.041.729,5.358,5.358,0,0,0,1.825-.495c.063-.05.164-.117.281-.194a5.709,5.709,0,0,1,1.675-1.258,3.235,3.235,0,0,0,.551-.153c.018-.009.027-.025.041-.036a2.706,2.706,0,0,0,.691-1.062c.34-.677.608-1.458,1.477-1.672a.287.287,0,0,1,.268.05A2.923,2.923,0,0,0,83.1,353.843Z" transform="translate(-73.831 -352.089)"/><path class="ao" d="M75.71,354.112h.013l-.01-.005Z" transform="translate(-72.33 -350.476)"/><path class="ao" d="M81.784,357.5c-.331.077-.669.162-1.006.241-.052.005-.11.014-.164.018l-.007.023c-1.195.292-2.3.572-2.71.691s-.682-.166-1.1-.29c-.356-.106-.853-.022-1.18-.164-.435-.187-.5-.41-1.024-.468a.692.692,0,0,0-.684,1.022c.3.723,1.866.977,2.458,1.31a1.785,1.785,0,0,0,.248.112,2.228,2.228,0,0,0,.959.113,5.773,5.773,0,0,0,1.508-.363c.466-.162.921-.345,1.335-.475a1.35,1.35,0,0,0,.317-.171,7.03,7.03,0,0,0,2.7-2.526c-.1.061-.2.128-.3.184A11.967,11.967,0,0,1,81.784,357.5Z" transform="translate(-73.827 -348.504)"/></g></g><g transform="translate(163.999 401.604)"><path class="ao" d="M110.656,382.049c.1.068.207.108.311.167a18.225,18.225,0,0,1-1.069-6.194c.221-1.155.486-3.459-.232-4.59-.705-1.112-.225-4.036-.207-4.144-.283.849-.686,1.719-.846,2.449a2.339,2.339,0,0,0,.054,1.843,4.876,4.876,0,0,1,.076,3.331,8.191,8.191,0,0,0,.479,4.178C109.528,380.149,109.693,381.405,110.656,382.049Z" transform="translate(-108.452 -367.288)"/><path class="ao" d="M111.17,376.21a9.994,9.994,0,0,0,3.336-.545.532.532,0,0,0-.142.022A16.22,16.22,0,0,1,111.17,376.21Z" transform="translate(-106.279 -360.591)"/></g><path class="as" d="M105.926,389.558c-1.126,4.035-1.31,8.551-2.123,13.253,1.074,1.63,2.008,2.822,1.58,1.27-.691-2.491,4-17.315,6.095-23.727C109.506,380.862,107.71,383.164,105.926,389.558Z" transform="translate(51.83 44.763)"/><path class="as" d="M116.828,405.606c-3.191.8-7.018-.914-9.03-2.109-1.8-1.065-8.974-10.484-12.651-15.4l-.041.058c-1.929,2.624,7.149,13.656,13,18.522A5.736,5.736,0,0,0,116.828,405.606Z" transform="translate(44.666 50.955)"/><path class="x" d="M106.435,409.082a5.018,5.018,0,0,0,.466,2.192c.72,1.287,3.855,2.827,5.3,2.9,2.035.1,5.19-.758,8.06-1.882C115.4,413.068,110.5,411.366,106.435,409.082Z" transform="translate(53.934 67.731)"/><path class="x" d="M106.476,411.3a90.894,90.894,0,0,0,11.69,7.873c.464.266,3.576.624,7.979-.957-9.537-.041-18.666-8.371-20.615-10.664-2.123-2.494-9.361-6.55-9.6-5.5a4.689,4.689,0,0,0,.907,2.06C99.728,406.843,103.547,408.838,106.476,411.3Z" transform="translate(45.525 61.975)"/><path class="k" d="M63.552,375.687a7.538,7.538,0,0,0,2.438-2.726,16.184,16.184,0,0,1-4.063-3.574c-1.96-2.113-9.05-18.909-8.99-25.807-.837,1.848-.871,4.914.374,9.831C55.419,361.723,60.621,376.432,63.552,375.687Z" transform="translate(10.683 15.361)"/><g transform="translate(142.544 417.77)"><g transform="translate(0)"><g transform="translate(23.758)"><path class="ai" d="M125.435,380.836c-.356.212-7.117,5.024-9.867,10.169-1.317,2.467-7.315,49.51-5.5,53.408s7,5.658,7.81,5.19,7.445-8.789,7.975-9.1,10.615-6.129,11.425-6.6,3.759-3.847,5.546-9.832c1.623-5.418,1.879-37.858.333-45.283-.144-.7-2.154-1.944-3.108-2.257-3.225-1.055-9.471,1.332-9.827,1.53A26.987,26.987,0,0,0,125.435,380.836Z" transform="translate(-109.732 -376.271)"/><g transform="translate(2.828 1.502)"><path class="ab" d="M127.005,381.767c-.356.214-7.115,5.022-9.867,10.171-1.315,2.467-7.315,49.506-5.494,53.406s4.771,3.876,5.582,3.408,10.909-6.3,11.439-6.6,10.615-6.129,11.425-6.6,3.759-3.847,5.546-9.833-2.629-47.01-3.955-47.95c-2.771-1.96-9.528,1.033-9.883,1.231A27.111,27.111,0,0,0,127.005,381.767Z" transform="translate(-111.303 -377.106)"/></g><g transform="translate(5.495 8.218)"><path class="ax" d="M126.461,384.9c-.311.183-6.2,4.373-8.594,8.857-1.146,2.147-6.368,43.116-4.785,46.51s4.157,3.374,4.862,2.967l9.962-5.753c.462-.265,9.244-5.336,9.949-5.744s3.275-3.349,4.83-8.562-2.289-40.941-3.444-41.761c-2.413-1.706-8.3.9-8.607,1.074A23.405,23.405,0,0,0,126.461,384.9Z" transform="translate(-112.785 -380.838)"/></g></g><g transform="translate(0 41.32)"><g class="y"><g transform="translate(6.944 20.038)"><path class="ay" d="M100.388,412.008l2.82-1.64,6.759,3.9-2.82,1.64Z" transform="translate(-100.388 -410.368)"/></g><path class="az" d="M97.335,404.949c0-.085,0-.169,0-.252v-.085l0-.043c0-.119,0-.236.009-.353,0-.038,0-.076.005-.113l.007-.1.007-.128c.011-.115.022-.227.036-.338l0-.027.009-.059c.011-.085.023-.169.038-.25.011-.063.025-.126.038-.187l.016-.085.011-.058c.027-.117.058-.234.092-.347l.014-.045c.011-.034.023-.068.034-.1.023-.07.045-.14.068-.207s.054-.137.081-.2l2.822-1.638c-.058.131-.1.268-.151.409-.011.034-.023.068-.034.1-.045.146-.083.3-.117.448l-.018.086c-.029.142-.054.286-.074.435l-.009.058c-.02.162-.036.327-.047.495l-.007.1c-.009.166-.013.337-.013.509v.083c0,.158.005.317.014.479,0,.032,0,.065.005.1.011.18.025.36.043.545,0,.043.011.09.016.135.016.146.034.293.056.441.007.058.014.113.023.173.023.153.05.31.079.466.007.045.014.09.022.137.04.2.081.408.126.617.016.068.032.139.05.209.032.144.065.29.1.436q.049.194.1.389c.025.1.05.194.077.291.065.236.135.473.207.707l0,.009c.076.246.155.495.236.74l.076.218c.065.194.133.385.2.579.029.085.059.169.09.25.083.223.166.448.252.669.02.052.04.1.061.157q.17.435.346.862l.081.189q.2.48.4.943c.09.2.18.4.27.6l.083.178c.063.137.124.272.187.4.1.214.2.425.3.632l.083.169c.072.148.144.293.214.435.058.115.113.227.169.34l.059.117.232.454.052.1c.058.113.115.223.171.329.027.05.052.1.077.148.041.079.081.155.122.229.049.09.1.18.142.266l.092.169.133.245c.027.047.054.1.079.146.047.081.088.157.13.232l.063.111c.059.106.115.2.166.292l-2.82,1.639-.166-.293c-.02-.032-.04-.07-.059-.1l-.133-.241c-.025-.047-.052-.094-.077-.14-.043-.081-.088-.16-.135-.246l-.092-.169c-.047-.088-.094-.174-.144-.268-.016-.032-.032-.059-.047-.092s-.049-.09-.074-.135-.05-.1-.077-.148l-.169-.324c-.018-.036-.036-.07-.054-.1-.076-.148-.153-.3-.23-.452l-.063-.126c-.043-.088-.088-.173-.133-.263a.6.6,0,0,0-.034-.068l-.214-.437c-.027-.058-.056-.112-.083-.171-.1-.205-.2-.418-.3-.632l-.009-.02c-.058-.122-.117-.25-.176-.38-.029-.061-.058-.121-.085-.183-.09-.2-.18-.4-.27-.6v0c-.137-.308-.272-.623-.4-.941l-.047-.112-.031-.077c-.119-.284-.234-.571-.347-.862l-.016-.038c-.016-.04-.031-.083-.045-.121-.086-.221-.169-.443-.252-.666-.016-.045-.032-.086-.049-.131l-.043-.12c-.068-.194-.135-.385-.2-.578-.018-.056-.04-.11-.056-.164l-.018-.058c-.081-.243-.16-.488-.236-.732l-.005-.014v0c-.072-.234-.142-.47-.207-.705l-.009-.031c-.025-.086-.047-.176-.07-.265-.034-.128-.068-.257-.1-.385l-.011-.04c-.034-.133-.063-.266-.094-.4-.014-.068-.032-.139-.049-.207l0-.02c-.041-.191-.081-.378-.115-.567l-.005-.031-.025-.135c-.02-.122-.041-.243-.061-.364-.007-.034-.011-.07-.016-.1-.007-.056-.016-.115-.023-.171s-.02-.133-.029-.2-.02-.162-.029-.243c0-.045-.011-.09-.014-.135l-.007-.067c-.013-.14-.023-.279-.034-.419l0-.059c0-.032,0-.065-.005-.1C97.343,405.1,97.337,405.023,97.335,404.949Z" transform="translate(-95.889 -398.356)"/><g class="y" transform="translate(1.911 1.902)"><g class="ba"><g class="y"><path class="bb" d="M97.677,401.928l2.82-1.638a.227.227,0,0,0-.085.072L97.591,402a.321.321,0,0,1,.086-.072Z" transform="translate(-97.591 -400.29)"/></g></g></g><g class="y" transform="translate(13.703 23.937)"><g class="bc"><g class="y"><path class="bd" d="M104.144,414.174l2.82-1.639c1.542.891,2.789,1.612,3.061,1.772h0l-2.82,1.639,0,0c-.272-.16-1.519-.88-3.061-1.771Z" transform="translate(-104.144 -412.535)"/><path class="be" d="M105.847,415.158l2.82-1.638.007,0-2.82,1.638-.007,0Z" transform="translate(-102.782 -411.747)"/><path class="az" d="M105.851,415.16l2.82-1.638.007,0-2.821,1.638-.006,0Z" transform="translate(-102.779 -411.746)"/><path class="bf" d="M105.854,415.162l2.821-1.638.01,0-2.82,1.64-.01-.005Z" transform="translate(-102.776 -411.744)"/><path class="bg" d="M105.86,415.166l2.82-1.64.01,0-2.82,1.64-.01,0Z" transform="translate(-102.772 -411.742)"/><path class="bh" d="M105.866,415.168l2.82-1.64.014.005-2.82,1.638-.014,0Z" transform="translate(-102.767 -411.741)"/><path class="bi" d="M105.874,415.169l2.82-1.638.017,0-2.82,1.64-.017-.005Z" transform="translate(-102.761 -411.738)"/><path class="bj" d="M105.883,415.172l2.82-1.639.02.005-2.82,1.638-.02,0Z" transform="translate(-102.754 -411.737)"/><path class="bk" d="M105.894,415.174l2.82-1.638.027,0-2.82,1.639-.027-.005Z" transform="translate(-102.745 -411.735)"/><path class="bl" d="M105.909,415.177l2.82-1.639.034,0-2.82,1.639-.034,0Z" transform="translate(-102.733 -411.733)"/><path class="bm" d="M105.928,415.179l2.82-1.639.045,0-2.82,1.639-.045,0Z" transform="translate(-102.718 -411.732)"/><path class="bn" d="M105.953,415.182l2.82-1.639c.022,0,.041,0,.065,0l-2.82,1.639c-.022,0-.043,0-.065,0Z" transform="translate(-102.698 -411.732)"/><path class="bo" d="M105.989,415.184l2.82-1.639c.029,0,.061-.007.094-.013l-2.82,1.638c-.032.007-.065.011-.094.014Z" transform="translate(-102.669 -411.738)"/><path class="bp" d="M106.041,415.189l2.82-1.638a1.391,1.391,0,0,0,.158-.043l-2.822,1.638a.738.738,0,0,1-.157.043Z" transform="translate(-102.627 -411.757)"/><path class="bb" d="M106.128,415.2l2.822-1.638a1.619,1.619,0,0,0,.283-.133l-2.82,1.639a1.751,1.751,0,0,1-.284.131Z" transform="translate(-102.558 -411.816)"/></g></g></g><path class="bb" d="M106.848,421.519l.009-.005c.076-.045.151-.094.225-.146.027-.02.054-.043.079-.063.052-.04.1-.076.155-.121.032-.027.063-.056.094-.083l.139-.126c.032-.032.065-.068.1-.1s.088-.086.13-.133.068-.077.1-.115l.124-.144c.034-.043.067-.086.1-.131s.081-.1.121-.155.067-.092.1-.14.077-.108.117-.166.067-.1.1-.149.076-.115.113-.175.068-.113.1-.169.072-.117.108-.18l.1-.176.1-.189c.034-.061.065-.122.1-.185s.068-.13.1-.2.063-.128.094-.191.061-.122.088-.185c.1-.216.2-.439.3-.666l.049-.115c.1-.229.187-.459.275-.7.014-.04.029-.083.045-.122.079-.22.158-.443.234-.668l.011-.034q.108-.329.205-.664c.014-.042.027-.085.038-.128.058-.2.112-.392.164-.588.009-.034.018-.068.025-.1.043-.169.085-.336.122-.5.011-.045.022-.088.031-.133.081-.351.151-.7.212-1.049l0-.023c.049-.282.09-.56.126-.833l.007-.061c.025-.205.047-.407.063-.6l.013-.155c.011-.126.018-.248.023-.371,0-.05.007-.1.009-.149,0-.113.007-.223.009-.335l0-.119c0-.041,0-.079,0-.12,0-.086,0-.175,0-.259,0-.045-.005-.088-.005-.131-.005-.1-.009-.2-.016-.292l2.82-1.638c0,.043.005.086.009.13l.005.16c0,.045.005.086.007.133l0,.041c0,.07-.05.144-.05.216,0,.041-.049.079-.049.122v.018c0,.032.049.067.049.1,0,.11.022.221.018.335,0,.016.011.032.011.049,0,.032,0,.068,0,.1-.007.122-.011.247-.02.372,0,.029,0,.058-.005.086l-.005.067c-.018.2-.038.4-.063.606l0,.018-.007.043c-.034.274-.076.549-.124.83l0,.009,0,.018q-.089.521-.211,1.047l-.009.047-.022.088c-.04.167-.079.335-.122.5-.009.032-.016.068-.025.1-.052.2-.106.392-.162.589l-.014.054-.025.076c-.065.223-.133.444-.205.662l-.011.034c-.076.225-.153.448-.234.666l-.027.077-.02.049c-.088.236-.18.468-.274.7l-.049.113c-.1.228-.2.45-.3.668l-.018.038-.072.146c-.031.065-.061.13-.094.191s-.067.135-.1.2-.065.124-.1.184l-.1.189c-.032.059-.067.119-.1.176s-.07.122-.106.18-.068.113-.1.169l-.023.041c-.031.045-.059.09-.09.133s-.065.1-.1.149-.079.115-.119.169-.065.094-.1.137-.081.106-.121.158-.067.086-.1.126-.083.1-.126.148-.065.077-.1.113-.088.09-.13.135l-.1.1c-.047.045-.094.086-.139.126l-.094.085c-.05.041-.1.081-.155.121l-.079.061c-.077.056-.157.1-.234.153l-2.82,1.638Z" transform="translate(-88.279 -392.599)"/><path class="az" d="M119.107,415.148l0-.014c-.027-.106-.058-.214-.092-.322l-.007-.025c-.036-.11-.074-.218-.117-.328l-.005-.014c-.041-.1-.088-.211-.137-.317l-.016-.038c-.049-.1-.1-.209-.155-.313l-.02-.038c-.02-.04-.045-.077-.065-.117-.059-.106-.122-.214-.187-.322l-.108-.174c-.029-.045-.058-.092-.088-.135s-.067-.1-.1-.149c-.067-.1-.137-.2-.211-.3-.038-.052-.076-.1-.115-.157l-.1-.137-.162-.207-.113-.139c-.056-.068-.112-.135-.169-.2-.043-.049-.086-.1-.13-.151s-.11-.121-.164-.182l-.167-.187-.151-.158c-.072-.077-.146-.155-.22-.232l-.14-.142c-.11-.11-.221-.221-.337-.331-.038-.038-.077-.075-.117-.113-.169-.162-.342-.324-.52-.484-.034-.031-.068-.061-.1-.092-.212-.191-.428-.38-.651-.569l-.011-.007c-.277-.234-.563-.466-.855-.7l0,0q-.483-.381-.988-.752c-.027-.02-.052-.04-.077-.056-.353-.261-.713-.515-1.078-.767l-.083-.056q-.621-.427-1.258-.831c-.029-.018-.058-.036-.086-.056q-.688-.435-1.386-.846l-.381-.223c-.382-.22-.763-.436-1.145-.641l-.1-.052c-.223-.121-.443-.238-.664-.351l-.124-.067c-.229-.117-.453-.232-.678-.342a.332.332,0,0,0-.045-.022c-.207-.1-.414-.2-.619-.3l-.115-.054c-.209-.1-.414-.193-.619-.284l-.13-.058-.531-.232-.059-.025c-.189-.081-.374-.157-.56-.23-.047-.02-.094-.038-.14-.056-.135-.054-.27-.108-.4-.158-.034-.013-.067-.027-.1-.038-.164-.063-.324-.121-.48-.176l-.07-.023c-.293-.1-.579-.2-.855-.281l-.061-.02c-.245-.074-.479-.139-.705-.194l-.032-.009c-.2-.049-.387-.092-.57-.128l-.056-.011c-.153-.03-.3-.056-.446-.075l-.085-.011c-.128-.018-.254-.032-.372-.04l-.049,0c-.092-.005-.182-.007-.268-.009h-.086c-.076,0-.146,0-.216.009l-.058,0c-.085.009-.166.02-.243.034l-.049.013a1.394,1.394,0,0,0-.182.049l-.059.02a1.324,1.324,0,0,0-.191.088l2.82-1.641a1.3,1.3,0,0,1,.191-.085l.025-.011.034-.011a1.4,1.4,0,0,1,.182-.049l.034-.009.014,0c.077-.016.158-.027.243-.036h.013l.047,0c.068-.005.14-.007.214-.009l.041,0,.045,0c.086,0,.176,0,.268.009l.038,0,.011,0c.119.009.245.023.372.04l.04,0,.047.009c.142.018.292.043.446.072l.016.005.036.005c.184.038.374.079.572.131l.009,0,.022.005c.227.056.462.122.705.2l.027.007.036.011c.275.085.561.178.855.281l.032.011.038.014c.158.056.319.113.48.174l.1.038c.135.05.272.1.409.16.025.009.05.016.076.027s.041.018.061.027c.185.074.374.151.563.232l.054.022.536.234.074.034.054.023c.205.092.41.187.619.286l.115.052.621.3.032.016.011.005c.225.112.452.227.68.344l.121.063c.221.115.444.232.668.354l.05.025.045.025c.38.207.763.419,1.144.642.115.067.232.133.347.2l.032.02q.7.41,1.387.848l.045.029.041.027q.637.4,1.258.83l.034.022.047.036c.367.25.729.506,1.081.765l.045.032.029.023c.338.247.669.462.992.716l0-.034h0a7.291,7.291,0,0,0,.853.732l.011.027,0,.011c.225.189.441.382.653.572l.065.059c.013.011.023.025.038.036.176.16.351.322.52.484l.038.036c.027.025.054.052.081.079q.17.165.335.329c.025.027.052.052.077.077l.063.067c.074.075.148.153.218.228.036.038.072.072.106.112l.047.05c.058.061.112.122.167.185.038.043.079.086.117.13l.045.054c.045.049.086.1.131.151l.112.131c.02.023.038.049.058.07l.112.139c.031.036.059.072.088.108s.05.067.076.1.07.09.1.137l.059.079.058.079c.07.1.14.2.209.3a1.025,1.025,0,0,1,.059.086l.043.063.086.135c.023.038.049.076.072.112s.023.043.036.065c.065.106.128.216.187.322.013.027.031.052.043.077l.022.04.018.036c.018.034.036.065.052.1.029.059.058.115.085.174l.02.043.016.036c.013.027.025.054.038.083s.04.086.056.131.031.07.043.1l.005.013.005.013c.016.045.032.088.049.131s.031.086.045.13l.018.056.009.023.014.05c.013.043.027.086.038.13s.023.086.034.128l0,.014,0,.014.023.1.025.122c.005.032.011.063.016.1l0,.011,0,.013c.007.041.013.081.018.122s.009.079.013.119l.007.072-2.82,1.638c-.009-.106-.022-.216-.04-.324l0-.013C119.154,415.36,119.132,415.256,119.107,415.148Z" transform="translate(-96.104 -399.233)"/><g transform="translate(0 1.639)"><path class="bb" d="M119.638,415.075c.378,4.945-3.2,14.227-6.349,12.406l-3.061-1.767c-3.081-1.78-7.13-4.117-7.344-4.238-.428-.707-8.584-14.115-5.764-20.714.7-1.643,6.16.176,11.528,3.275C114.056,407.159,119.372,411.58,119.638,415.075Zm-5.406,10.533c2.284-1.56,4.249-7.83,3.993-11.195-.124-1.629-3.525-5.251-9.579-8.746-5.908-3.412-9.791-4.112-10.207-3.55-2.113,4.943,3.491,15.357,5.033,18.065l6.759,3.9c1.542.891,2.789,1.611,3.061,1.771.11.063.446.092.939-.245Z" transform="translate(-96.529 -400.144)"/></g></g></g></g></g></g></svg>