<svg xmlns="http://www.w3.org/2000/svg" xmlns:xlink="http://www.w3.org/1999/xlink" width="60" height="59" viewBox="0 0 60 59"><defs><style>.a{fill:url(#a);}.b{fill:#fff;}</style><linearGradient id="a" x1="0.802" y1="0.893" x2="0.178" y2="-0.087" gradientUnits="objectBoundingBox"><stop offset="0" stop-color="#4d80fb"/><stop offset="1" stop-color="#23ce6b"/></linearGradient></defs><g transform="translate(0.177 -0.332)"><ellipse class="a" cx="30" cy="29.5" rx="30" ry="29.5" transform="translate(-0.177 0.332)"/><g transform="translate(16.077 15.567)"><g transform="translate(9.682 4.841)"><path class="b" d="M185.565,85.333a4.236,4.236,0,1,0,4.236,4.236A4.241,4.241,0,0,0,185.565,85.333Zm0,7.262a3.026,3.026,0,1,1,3.026-3.026A3.028,3.028,0,0,1,185.565,92.595Z" transform="translate(-181.329 -85.333)"/></g><g transform="translate(0 20.575)"><path class="b" d="M38.4,370.2l-4.841-7.262a.607.607,0,0,0-.5-.27h-5.87a.605.605,0,0,0,0,1.21h5.547l4.034,6.052H12.4l4.034-6.052h5.546a.605.605,0,0,0,0-1.21h-5.87a.608.608,0,0,0-.5.269L10.768,370.2a.606.606,0,0,0,.5.942H37.9a.605.605,0,0,0,.5-.94Z" transform="translate(-10.667 -362.666)"/></g><g transform="translate(4.841)"><g transform="translate(0)"><path class="b" d="M105.073,0A9.087,9.087,0,0,0,96,9.077c0,4.829,8.246,15.645,8.6,16.1a.6.6,0,0,0,.959,0c.352-.457,8.6-11.273,8.6-16.1A9.087,9.087,0,0,0,105.073,0Zm0,23.8c-1.777-2.4-7.867-10.928-7.867-14.723a7.867,7.867,0,1,1,15.734,0C112.94,12.873,106.85,21.4,105.073,23.8Z" transform="translate(-95.996)"/></g></g></g></g></svg>