<svg xmlns="http://www.w3.org/2000/svg" width="203.989" height="152.475" viewBox="0 0 203.989 152.475"><defs><style>.a{fill:#2e2e5e;}.b{fill:#08083d;}.c,.h{fill:#dcb7af;}.c{opacity:0.7;}.d{fill:#9ae5ad;}.e{fill:#f0e1d9;}.f{fill:#96aee9;}.g{fill:#f0f3fe;}.i{fill:#56225e;}.j{fill:#277548;}.k{fill:#23ce6b;}</style></defs><g transform="translate(0)"><g transform="translate(0 25.839)"><path class="a" d="M277.455,177.479c6.488,3.743,6.55,9.856.062,13.6L155.561,261.945c-6.488,3.743-16.968,3.743-23.456,0L83.447,233.873c-6.488-3.743-6.55-9.856-.062-13.6l121.957-70.866c6.488-3.743,16.968-3.743,23.456,0ZM258.117,199.5l10.168-5.926-67.31-38.864-108.3,62.943,67.31,38.864L258.117,199.5M110.77,246.162a14.138,14.138,0,0,0,12.664,0c3.493-2,3.431-5.3-.062-7.3a14.137,14.137,0,0,0-12.664,0c-3.493,2-3.431,5.3.062,7.3m125.513-81.97a1.718,1.718,0,0,0-1.56,0,.5.5,0,0,0,0,.936l15.658,9.045a1.718,1.718,0,0,0,1.56,0,.5.5,0,0,0,0-.936l-15.658-9.046m-5.552-3.93a3.171,3.171,0,0,0-2.807,0,.866.866,0,0,0,0,1.622,3.171,3.171,0,0,0,2.807,0c.811-.437.811-1.185,0-1.622m17.28,6.051a1.987,1.987,0,0,0-1.684,0c-.437.249-.437.686,0,1a1.987,1.987,0,0,0,1.684,0c.5-.312.5-.749,0-1" transform="translate(-78.394 -146.6)"/><path class="b" d="M282.289,207v.749a.376.376,0,0,1-.062.25.471.471,0,0,1-.062.25c0,.062-.062.187-.062.25s-.062.125-.062.25c0,.062-.062.187-.062.249s-.062.125-.062.187c-.062.062-.062.187-.125.25,0,.062-.062.125-.125.187s-.062.187-.125.25-.062.125-.125.187c-.062.125-.125.187-.187.312-.062.062-.062.125-.125.187a1.1,1.1,0,0,1-.249.312l-.125.125a3.121,3.121,0,0,1-.437.5l-.125.125-.374.374-.187.187c-.062.062-.187.125-.25.187a.86.86,0,0,1-.25.187c-.062.062-.187.125-.25.187s-.187.125-.25.187a1.36,1.36,0,0,1-.312.187c-.062.062-.187.125-.249.187-.125.062-.187.125-.312.187s-.25.187-.374.25L155.467,284.666l-1.123.561c-.125.062-.187.125-.312.125a7.628,7.628,0,0,1-1.061.437.218.218,0,0,0-.125.062c-.374.125-.811.312-1.185.437-.25.062-.561.187-.873.249-.187.062-.437.125-.624.187l-.936.187a2.655,2.655,0,0,1-.686.125.375.375,0,0,0-.25.062l-1.123.187a.467.467,0,0,0-.312.063c-.25,0-.437.062-.686.062-.374,0-.749.062-1.123.062h-2.433a4.115,4.115,0,0,1-.873-.062c-.25,0-.5-.062-.749-.062s-.561-.063-.811-.063c-.25-.062-.5-.062-.749-.125a4.217,4.217,0,0,0-.873-.125c-.249-.062-.437-.062-.686-.125-.374-.062-.686-.187-1.061-.25-.25-.062-.437-.125-.686-.187-.125-.062-.25-.062-.374-.125-.312-.125-.686-.25-1-.374-.125-.062-.187-.062-.312-.125-.312-.125-.561-.25-.873-.374-.125-.062-.312-.125-.437-.187-.437-.187-.811-.437-1.248-.624L83.228,256.594c-3.244-1.871-4.928-4.367-4.928-6.862v8.484c0,2.5,1.622,4.928,4.928,6.862l48.658,28.072a7.77,7.77,0,0,0,1.248.624c.125.062.312.125.437.187a3.822,3.822,0,0,0,.749.312c.062,0,.062.062.125.062.125.062.187.062.312.125.312.125.686.249,1,.374.125.062.25.062.374.125.062,0,.125.062.25.062.125.062.312.062.437.125.312.062.686.187,1.061.249.062,0,.187.063.25.063.125,0,.25.062.437.062a4.209,4.209,0,0,0,.873.125c.125,0,.25.062.374.062a.789.789,0,0,1,.374.063,3.563,3.563,0,0,0,.811.062c.125,0,.249.062.374.062h.374c.25,0,.561.062.811.062h2.37c.374,0,.749-.062,1.123-.062h.624a.468.468,0,0,0,.312-.062l1.123-.187a.375.375,0,0,0,.249-.062h.125c.187-.062.374-.062.561-.125l.936-.187c.25-.062.437-.125.624-.187a4.6,4.6,0,0,0,.873-.25c.062,0,.125-.062.187-.062.312-.125.686-.25,1-.374a.218.218,0,0,0,.125-.062c.374-.125.686-.312,1.06-.437.125-.062.187-.125.312-.125l1.123-.561,121.957-70.866c.062-.062.125-.062.187-.125s.125-.062.187-.125c.125-.062.187-.125.312-.187.062-.062.187-.125.25-.187a.862.862,0,0,0,.249-.187c.062-.062.187-.125.25-.187s.187-.125.249-.187a.862.862,0,0,1,.25-.187c.062-.062.187-.125.249-.187.062,0,.062-.062.125-.062l.062-.062.374-.374.125-.125c.125-.187.312-.312.437-.5h0c0-.062.062-.062.062-.125.062-.125.187-.187.249-.312.062-.062.062-.125.125-.187.062-.125.125-.187.187-.312l.062-.062c0-.062.062-.062.062-.125.062-.062.062-.187.125-.25s.062-.125.125-.187.063-.187.125-.249c0-.062.062-.062.062-.125s0-.062.062-.125c0-.062.062-.187.062-.25s.062-.125.062-.25c0-.062.062-.187.062-.25s0-.062.062-.125v-.062a.374.374,0,0,1,.062-.25v-.686h0Z" transform="translate(-78.3 -169.321)"/><path class="c" d="M287.6,198.526l-10.168,5.864L129.9,212.126,220.292,159.6Z" transform="translate(-97.711 -151.49)"/><path class="b" d="M141.12,294.154c3.182,1.871,3.244,4.866.062,6.675a12.563,12.563,0,0,1-11.541,0c-3.181-1.872-3.244-4.866-.062-6.675A12.563,12.563,0,0,1,141.12,294.154Z" transform="translate(-96.704 -201.579)"/><path class="d" d="M313.823,182.534l-14.223,8.3.125-16.531Z" transform="translate(-161.549 -157.02)"/><path class="d" d="M256.37,184.751l-18.652,10.917L227.3,189.617,246.015,178.7Z" transform="translate(-134.351 -158.675)"/><path class="e" d="M313.922,182.652l-21.522,12.6.312-24.953,4.3,2.5-.125,16.531,14.223-8.3Z" transform="translate(-158.84 -155.516)"/><path class="f" d="M328.669,211.093l-10.418,6.051-6.051-3.493,10.418-6.051Z" transform="translate(-166.288 -169.547)"/><path class="f" d="M249.8,208.06l-9.794,5.677-6.238,3.68-8.8-5.115L210.5,203.881l6.176-3.681,14.535,8.484L241,202.945Z" transform="translate(-128.031 -166.763)"/><path class="e" d="M249.959,194.634l-22.27,13.038L195,188.708,244.594,159.7l5.8,3.369ZM234.176,198.5l9.794-5.739-8.8-5.115-9.794,5.739-14.535-8.422-6.238,3.618L219.142,197l8.8,5.115,6.238-3.618m-.312-26.949-18.715,10.917,10.418,6.051L244.282,177.6l-10.418-6.051" transform="translate(-122.2 -151.528)"/><path class="f" d="M340.76,214.73l-25.7,15.034-6.862,3.992-6.675-3.868L286.8,221.343l6.862-4.055,14.722,8.546,25.7-15.034Z" transform="translate(-156.733 -170.751)"/><path class="e" d="M146.194,240.5a8.234,8.234,0,0,0-2.87-1L129.6,231.522,166.343,210l32.688,18.964-36.182,21.21Zm-7.8-8.609,7.735,4.492,15.6,9.045,7.3-4.242-15.6-9.045,14.285-8.359,15.6,9.045,7.3-4.242-15.6-9.045-7.735-4.492-7.3,4.242-14.285,8.359-7.3,4.242m36.993,2.62-7.049-4.117-3.556,2.059,7.049,4.117,3.556-2.059" transform="translate(-97.598 -170.45)"/><path class="d" d="M196.6,246.817l-3.556,2.059L186,244.821l3.556-2.121Z" transform="translate(-118.815 -182.751)"/><path class="g" d="M123.2,246.77l4.055-2.37,13.724,7.985a11.106,11.106,0,0,0-6.737.811Z" transform="translate(-95.19 -183.39)"/><path class="e" d="M328.422,208.373l5.24,3.057-49.594,29.008L254,222.908,303.594,193.9l18.216,10.6-25.7,15.034-14.722-8.546-6.862,3.992,14.722,8.546,6.675,3.868,6.862-3.992ZM283.32,234.7l6.862-3.992-21.4-12.414-6.862,3.992,21.4,12.414m17.4-32.252L290.369,208.5l6.051,3.493,10.355-6.051-6.051-3.493" transform="translate(-144.395 -164.393)"/><path class="f" d="M294.959,245.414l-6.862,3.992-21.4-12.414L273.562,233Z" transform="translate(-149.172 -179.102)"/><path class="f" d="M195.851,231.637l-7.3,4.242-15.6-9.045-14.285,8.359,15.6,9.045-7.236,4.242-15.6-9.045-7.735-4.491L151,230.7l14.286-8.359,7.3-4.242,7.673,4.491Z" transform="translate(-102.902 -173.497)"/><path class="f" d="M282.438,273.469l-7.3,4.242h0L269.4,274.4l7.236-4.3,5.739,3.369Z" transform="translate(-150.188 -193.058)"/><path class="e" d="M259.3,272.109,273.149,264l8.858,5.178-3.431,2-5.739-3.369-7.236,4.3,5.739,3.306-3.182,1.871Z" transform="translate(-146.388 -190.763)"/><path class="f" d="M220.774,275.376l-9.545,5.614-10.73-6.176,9.607-5.614Z" transform="translate(-124.269 -192.72)"/><path class="g" d="M253.267,231.936l-8.858-5.178-13.849,8.11,8.858,5.178-4.055,2.371-30.13-17.53-18.278,10.73-4.055-2.371,36.182-21.21-32.626-18.964,4.055-2.371,32.626,18.964,22.27-13.038L245.843,165l5.677,3.306-.312,24.953,21.522-12.6,4.055,2.37-49.531,29.008,30.068,17.529Z" transform="translate(-117.648 -153.522)"/><path class="g" d="M154.6,288.292l7.611-4.492,4.117,2.37-7.673,4.492Z" transform="translate(-107.002 -198.212)"/><path class="e" d="M189.4,271.73,207.678,261l30.131,17.529-5.24,3.057-11.915-6.925-15.159,8.858c.374-1.248-.312-2.62-2-3.618Zm16.531-5.615-9.544,5.615,10.667,6.238,9.544-5.615-10.667-6.238" transform="translate(-120.094 -189.635)"/><path class="e" d="M182.809,295.772a10.811,10.811,0,0,0,6.238,1.185l-9.732,5.739L161.1,292.092l7.673-4.492Z" transform="translate(-109.448 -199.641)"/><path class="d" d="M232.869,289.787l-30.692,17.966L190.2,300.828l9.732-5.739A8.8,8.8,0,0,0,203.8,293.9a3.841,3.841,0,0,0,1.934-2.246l15.159-8.858Z" transform="translate(-120.394 -197.836)"/><path class="h" d="M253.242,256.564l-7.3,4.242L235.9,254.942l7.236-4.242Z" transform="translate(-137.586 -185.76)"/><path class="f" d="M242.355,262.291,225.2,252.31l13.911-8.11,17.155,9.981Z" transform="translate(-133.561 -183.315)"/><path class="e" d="M256.266,254.181l-13.911,8.11L225.2,252.31l13.911-8.11Zm-14.348,4.18,7.3-4.242-10.106-5.864-7.3,4.242,10.106,5.864" transform="translate(-133.561 -183.315)"/><path class="e" d="M125.905,260.776l16.656,9.669-7.673,4.492L102.2,255.973l13.1-7.673,10.979,6.425a1.562,1.562,0,0,0-.437.25C123.1,256.534,123.1,259.154,125.905,260.776Z" transform="translate(-87.291 -184.857)"/><path class="i" d="M223.825,256.805c1.5.873,1.5,2.246,0,3.119a5.693,5.693,0,0,1-5.3,0c-1.5-.873-1.5-2.246,0-3.119A5.692,5.692,0,0,1,223.825,256.805Z" transform="translate(-130.626 -187.811)"/><path class="g" d="M223.669,258.1a.866.866,0,0,1,0,1.622,3.17,3.17,0,0,1-2.807,0,.866.866,0,0,1,0-1.622A3.17,3.17,0,0,1,223.669,258.1Z" transform="translate(-131.717 -188.422)"/></g><g transform="translate(64.791 0)"><path class="j" d="M203.671,201.474a50.5,50.5,0,0,1,7.381-12.463,44.224,44.224,0,0,1,11.5-10.164,29.489,29.489,0,0,1,3.388-1.694c5.082-2.057,9.317-1.815,12.342,0l5.929,3.388c-3.146-1.815-7.26-2.057-12.342,0a22.114,22.114,0,0,0-3.388,1.694,42.35,42.35,0,0,0-11.5,10.164,50.5,50.5,0,0,0-7.381,12.463,37.128,37.128,0,0,0-3.267,14.762,25.062,25.062,0,0,0,.847,6.776,22.208,22.208,0,0,0,2.3,4.477,42.112,42.112,0,0,0,5.445,7.26c4.356,4.961,8.47,10.164,11.253,17.788a1.24,1.24,0,0,0,.605.726l-5.929-3.388a1.239,1.239,0,0,1-.605-.726c-2.783-7.623-6.9-12.826-11.253-17.787a47.374,47.374,0,0,1-5.445-7.26,30.884,30.884,0,0,1-2.3-4.477,18.862,18.862,0,0,1-.847-6.776A41.217,41.217,0,0,1,203.671,201.474Z" transform="translate(-200.381 -175.699)"/><path class="k" d="M208.592,204.266a50.5,50.5,0,0,1,7.381-12.463,44.221,44.221,0,0,1,11.5-10.164,29.5,29.5,0,0,1,3.388-1.694c7.018-2.783,12.221-1.21,15.367,2.662,1.936,2.3,3.267,5.808,3.388,10.89a38.109,38.109,0,0,1-3.146,14.884c-.847,2.3-1.694,4.6-2.662,6.776-2.783,6.776-5.808,13.31-8.349,20.208a169.539,169.539,0,0,0-5.566,17.3,5.644,5.644,0,0,1-2.42,3.388,1.508,1.508,0,0,1-2.42-.605c-2.783-7.623-6.9-12.827-11.253-17.788a47.366,47.366,0,0,1-5.445-7.26,30.891,30.891,0,0,1-2.3-4.477,18.862,18.862,0,0,1-.847-6.776A42.538,42.538,0,0,1,208.592,204.266ZM227.469,216c5.2-3.025,9.317-10.164,9.317-16.094s-4.235-8.228-9.317-5.324-9.317,10.164-9.317,16.094c0,5.808,4.235,8.228,9.317,5.324" transform="translate(-199.373 -175.103)"/><path class="g" d="M226.184,188.609c-6.9,3.993-12.584,13.794-12.584,21.781s5.687,11.253,12.584,7.26c7.018-3.993,12.584-13.794,12.584-21.781C238.89,187.762,233.2,184.495,226.184,188.609Z" transform="translate(-197.604 -173.361)"/></g></g></svg>