<svg xmlns="http://www.w3.org/2000/svg" xmlns:xlink="http://www.w3.org/1999/xlink" width="60" height="59" viewBox="0 0 60 59"><defs><style>.a{fill:url(#a);}.b{fill:#fff;}</style><linearGradient id="a" x1="0.802" y1="0.893" x2="0.178" y2="-0.087" gradientUnits="objectBoundingBox"><stop offset="0" stop-color="#4d80fb"/><stop offset="1" stop-color="#23ce6b"/></linearGradient></defs><g transform="translate(0.177 -0.314)"><ellipse class="a" cx="30" cy="29.5" rx="30" ry="29.5" transform="translate(-0.177 0.315)"/><g transform="translate(15.558 15.567)"><g transform="translate(18.204 13.506)"><path class="b" d="M19.023,18.547a3.523,3.523,0,1,1,3.523-3.523A3.528,3.528,0,0,1,19.023,18.547Zm0-5.872a2.349,2.349,0,1,0,2.349,2.349A2.351,2.351,0,0,0,19.023,12.674Z" transform="translate(-15.5 -11.5)"/></g><g transform="translate(15.268 22.314)"><path class="b" d="M25.332,24.872a.587.587,0,0,1-.587-.587V21.936a1.764,1.764,0,0,0-1.762-1.762H15.936a1.764,1.764,0,0,0-1.762,1.762v2.349a.587.587,0,1,1-1.174,0V21.936A2.939,2.939,0,0,1,15.936,19h7.047a2.939,2.939,0,0,1,2.936,2.936v2.349A.587.587,0,0,1,25.332,24.872Z" transform="translate(-13 -19)"/></g><g transform="translate(0)"><path class="b" d="M13.506,18.791a.587.587,0,0,1-.4-.156L9.46,15.268H2.936A2.939,2.939,0,0,1,0,12.332v-9.4A2.939,2.939,0,0,1,2.936,0H14.68a2.939,2.939,0,0,1,2.936,2.936v9.4a2.939,2.939,0,0,1-2.936,2.936h-.587V18.2a.588.588,0,0,1-.587.587ZM2.936,1.174A1.764,1.764,0,0,0,1.174,2.936v9.4a1.764,1.764,0,0,0,1.762,1.762H9.689a.582.582,0,0,1,.4.156l2.832,2.613V14.681a.587.587,0,0,1,.587-.587H14.68a1.764,1.764,0,0,0,1.762-1.762v-9.4A1.764,1.764,0,0,0,14.68,1.174Z" transform="translate(0)"/></g><g transform="translate(5.872 2.349)"><path class="b" d="M7.936,10.221a.587.587,0,0,1-.587-.587V9.325A3.716,3.716,0,0,1,8.977,6.358a1.762,1.762,0,1,0-2.8-1.422A.587.587,0,1,1,5,4.936a2.936,2.936,0,1,1,4.672,2.37A2.577,2.577,0,0,0,8.523,9.325v.309A.587.587,0,0,1,7.936,10.221Z" transform="translate(-5 -2)"/></g><ellipse class="b" cx="0.578" cy="0.578" rx="0.578" ry="0.578" transform="translate(8.23 11.759)"/></g></g></svg>