<svg xmlns="http://www.w3.org/2000/svg" xmlns:xlink="http://www.w3.org/1999/xlink" width="137.593" height="151.7" viewBox="0 0 137.593 151.7"><defs><style>.a{fill:#08083d;}.b{fill:#4e4e98;}.c{fill:#2b2b70;}.ac,.d{fill:#2e2e5e;}.e{fill:url(#a);}.f{fill:#bcbec0;}.f,.g,.l{mix-blend-mode:multiply;}.f,.g,.i,.l{isolation:isolate;}.g{opacity:0.5;fill:url(#b);}.h{fill:#96aee9;}.i{mix-blend-mode:color-dodge;}.j{fill:#efefef;}.j,.k{opacity:0.3;}.k,.p{fill:#fff;}.l{fill:url(#c);}.m{fill:url(#d);}.n{fill:#7cf1ad;}.o{fill:url(#e);}.q{fill:url(#f);}.r{fill:#46df86;}.s{fill:url(#g);}.t{fill:#c2c2c2;}.u{fill:url(#h);}.v{fill:#6184d8;}.w{fill:url(#j);}.x{fill:url(#k);}.y{fill:url(#l);}.z{fill:#8dadfb;}.aa{fill:url(#m);}.ab{fill:#d2d2d2;}.ac{opacity:0.6;}.ad{fill:#1b2f5e;}.ae{fill:#445c97;}.af{fill:#bfcef3;}.ag{fill:#2e61dc;}.ah{fill:#658ff6;}.ai{fill:#4f4f98;}.aj{fill:#49c67d;}.ak{opacity:0.1;}.al{fill:url(#n);}</style><linearGradient id="a" x1="-140.048" y1="506.206" x2="-136.4" y2="506.206" gradientUnits="objectBoundingBox"><stop offset="0" stop-color="#311b61"/><stop offset="0.203" stop-color="#290e52"/><stop offset="0.495" stop-color="#200041"/><stop offset="1" stop-color="#0f001f"/></linearGradient><linearGradient id="b" x1="192.901" y1="0.611" x2="195.01" y2="0.068" gradientUnits="objectBoundingBox"><stop offset="0.096" stop-color="#45108a"/><stop offset="1" stop-color="#7c1dc9"/></linearGradient><linearGradient id="c" x1="0.679" y1="0.626" x2="0.224" y2="-0.196" gradientUnits="objectBoundingBox"><stop offset="0" stop-color="#fff"/><stop offset="1"/></linearGradient><radialGradient id="d" cx="0.504" cy="0.501" r="0.655" gradientTransform="translate(0.18) scale(0.64 1)" gradientUnits="objectBoundingBox"><stop offset="0" stop-color="#271273"/><stop offset="0.084" stop-color="#200f5f"/><stop offset="0.26" stop-color="#14093d"/><stop offset="0.439" stop-color="#0b0522"/><stop offset="0.62" stop-color="#05020f"/><stop offset="0.805" stop-color="#010003"/><stop offset="1"/></radialGradient><radialGradient id="e" cx="1.361" cy="0.165" r="1.081" gradientTransform="translate(-0.032) scale(1.064 1)" xlink:href="#d"/><linearGradient id="f" x1="-3.996" y1="0.5" x2="1.009" y2="0.5" gradientUnits="objectBoundingBox"><stop offset="0.035" stop-color="#9d9eb3"/><stop offset="0.581" stop-color="#d4d1d8"/><stop offset="1" stop-color="#eeebf2"/></linearGradient><linearGradient id="g" x1="-3.962" y1="0.5" x2="1" y2="0.5" xlink:href="#f"/><linearGradient id="h" x1="-4.266" y1="-14.494" x2="-3.111" y2="-14.494" gradientUnits="objectBoundingBox"><stop offset="0.035" stop-color="#6b24d6"/><stop offset="0.294" stop-color="#7733dc"/><stop offset="0.794" stop-color="#965bec"/><stop offset="1" stop-color="#a56ef4"/></linearGradient><radialGradient id="j" cx="5.206" cy="-3.412" r="4.448" gradientTransform="translate(-0.08) scale(1.161 1)" xlink:href="#d"/><linearGradient id="k" x1="-0.877" y1="0.998" x2="1.957" y2="0.101" gradientUnits="objectBoundingBox"><stop offset="0.035" stop-color="#138bbd"/><stop offset="0.226" stop-color="#169ac6"/><stop offset="0.595" stop-color="#1ec2df"/><stop offset="1" stop-color="#2af6ff"/></linearGradient><radialGradient id="l" cx="0.5" cy="0.516" r="0.55" gradientTransform="translate(0.049) scale(0.901 1)" xlink:href="#d"/><linearGradient id="m" x1="-1.542" y1="0.5" x2="1" y2="0.5" xlink:href="#f"/><linearGradient id="n" x1="1.472" y1="0.822" x2="-0.378" y2="-0.348" gradientUnits="objectBoundingBox"><stop offset="0.035" stop-color="#ffa98c"/><stop offset="0.317" stop-color="#feb892"/><stop offset="0.86" stop-color="#fee0a3"/><stop offset="1" stop-color="#feeca8"/></linearGradient></defs><g transform="translate(-307.93 -59.14)"><g transform="translate(386.81 59.14)"><path class="a" d="M522.5,207.745l-39.039-22.539c-4.4-2.542-7.974-9.363-7.974-15.235V66.006c0-2.986-2.455-3.646-.968-4.719.057-.041,3.485-1.6,3.55-1.623a5.756,5.756,0,0,1,5.392.314L522.5,82.517c4.4,2.542,7.974,9.363,7.974,15.235V201.717c0,3.12-1.008,5.344-2.613,6.362-.1.06-4.226,2.024-4.332,2.06C522.109,210.613,524.428,208.857,522.5,207.745Z" transform="translate(-471.764 -59.14)"/><path class="b" d="M516.715,210.991l-39.039-22.539c-4.4-2.542-7.974-9.363-7.974-15.234V69.251c0-5.871,3.57-8.57,7.974-6.027l39.039,22.539c4.4,2.543,7.974,9.363,7.974,15.235V204.963C524.688,210.835,521.118,213.534,516.715,210.991Z" transform="translate(-469.702 -60.625)"/><path class="c" d="M471.772,175.2V71.1c0-5.147,3.13-7.513,6.99-5.284l38.832,22.42c3.86,2.229,6.99,8.208,6.99,13.355V205.688c0,5.147-3.13,7.513-6.99,5.284l-38.832-22.42C474.9,186.324,471.772,180.345,471.772,175.2Z" transform="translate(-470.685 -61.913)"/><path class="d" d="M474.729,177.781V74.215c0-4.308,2.62-6.289,5.851-4.423l38,21.942c3.232,1.865,5.851,6.871,5.851,11.179V206.478c0,4.308-2.619,6.289-5.851,4.423l-38-21.941C477.349,187.094,474.729,182.09,474.729,177.781Z" transform="translate(-472.088 -63.864)"/><path class="e" d="M576.378,173.219V166.2a2.918,2.918,0,0,1,1.219-2.329h0c.673-.389,1.219.024,1.219.921v7.019a2.92,2.92,0,0,1-1.219,2.329h0C576.924,174.529,576.378,174.117,576.378,173.219Z" transform="translate(-520.344 -108.79)"/><path class="d" d="M577.352,174.261c-.348,0-.471-.433-.471-.8v-7.018a2.672,2.672,0,0,1,1.087-2.1.729.729,0,0,1,.352-.111c.348,0,.471.433.471.8v7.018a2.675,2.675,0,0,1-1.087,2.1A.734.734,0,0,1,577.352,174.261Z" transform="translate(-520.583 -109.029)"/><path class="b" d="M577.241,173.637v-7.019a2.672,2.672,0,0,1,1.087-2.1.755.755,0,0,1,.312-.1.373.373,0,0,0-.32-.187.735.735,0,0,0-.352.111,2.674,2.674,0,0,0-1.087,2.1v7.019c0,.371.123.8.471.8.012,0,.027-.005.04-.006A1.17,1.17,0,0,1,577.241,173.637Z" transform="translate(-520.583 -109.028)"/><path class="f" d="M518.845,93.355,481.722,71.922c-3.046-1.759-5.514-.351-5.514,3.144V179.8a12.15,12.15,0,0,0,5.514,9.511l37.123,21.433c3.046,1.758,5.514.351,5.514-3.144V102.866A12.15,12.15,0,0,0,518.845,93.355ZM523.88,207.6a4.1,4.1,0,0,1-.738,2.578,2.251,2.251,0,0,1-1.821.844h0a4.6,4.6,0,0,1-2.235-.693l-37.123-21.433a11.634,11.634,0,0,1-5.275-9.1V75.066c0-2.111.981-3.422,2.56-3.422a4.6,4.6,0,0,1,2.235.693l37.123,21.433a11.638,11.638,0,0,1,5.274,9.1Z" transform="translate(-472.791 -64.849)"/><path class="g" d="M509.168,251.484a10.072,10.072,0,0,1,4.05,5.156c.764-1.232,2.29-1.494,4.051-.478a10.079,10.079,0,0,1,4.574,7.889c0,5.3-8.624,6.866-8.624,6.866s-8.624-11.527-8.624-16.825C504.594,251.194,506.641,250.026,509.168,251.484Z" transform="translate(-486.266 -150.154)"/><path class="h" d="M507.62,252.516a10.072,10.072,0,0,1,4.05,5.155c.765-1.232,2.291-1.494,4.051-.477a10.077,10.077,0,0,1,4.574,7.889c0,5.3-8.624,6.866-8.624,6.866s-8.624-11.527-8.624-16.825C503.046,252.226,505.094,251.058,507.62,252.516Z" transform="translate(-485.531 -150.644)"/><g class="i" transform="translate(18.636 101.248)"><path class="j" d="M507.955,252.858a10.068,10.068,0,0,1,4.05,5.155,2.361,2.361,0,0,1,.564-.617,9.985,9.985,0,0,0-3.937-4.877c-1.38-.8-2.614-.8-3.453-.18A3.552,3.552,0,0,1,507.955,252.858Z" transform="translate(-505.18 -251.894)"/><path class="k" d="M524.064,261.427c-1.377-.8-2.605-.8-3.443-.176a3.537,3.537,0,0,1,2.766.515,10.077,10.077,0,0,1,4.574,7.888c0,2.461-1.862,4.117-3.855,5.184,2.227-1.044,4.532-2.784,4.532-5.523A10.077,10.077,0,0,0,524.064,261.427Z" transform="translate(-512.51 -256.124)"/></g></g><path class="l" d="M474.882,272.338l-2.758-7.748,2.758-10.374Z" transform="translate(-84.042 -91.63)"/><g transform="translate(373.7 94.606)"><path class="m" d="M555.43,141.514h0l0,0Z" transform="translate(-497.288 -133.71)"/><g transform="translate(0.016)"><path class="n" d="M501.6,128.087v0c-4.109-2.29-9.756-1.909-15.991,1.69L465.134,141.6l10.258,5.949,20.48-11.825c6.04-3.487,11.529-3.954,15.6-1.9Z" transform="translate(-454.44 -126.659)"/><path class="o" d="M444.775,161.279v16.109l10.267-5.927v-4.238l10.685-6.169L455.469,155.1Z" transform="translate(-444.775 -140.163)"/><path class="p" d="M444.775,161.279l10.267,5.944,10.685-6.169L455.469,155.1Z" transform="translate(-444.775 -140.163)"/></g><g transform="translate(10.283 5.943)"><g transform="translate(0)"><path class="q" d="M475.005,166.43,464.32,172.6l10.685-6.169Z" transform="translate(-464.32 -151.482)"/><path class="r" d="M505.143,141.1l-20.48,11.825.092.054v16l20.388-11.771c4.8-2.771,8.7-.545,8.7,4.962,0,.07,0,.14,0,.21l14.037-8.046c0-.089.006-.18.006-.269h0C527.886,139.65,517.7,133.844,505.143,141.1Z" transform="translate(-473.978 -137.973)"/><path class="s" d="M475.005,166.43,464.32,172.6v16.109l10.778-6.223v-16Z" transform="translate(-464.32 -151.482)"/><path class="t" d="M475.005,166.43,464.32,172.6v16.109l10.778-6.223v-16Z" transform="translate(-464.32 -151.482)"/></g><path class="u" d="M495.486,191.967,464.32,209.96v16.11l31.166-17.994c12.483-7.207,22.612-24.6,22.737-38.958l-14.037,8.046C504.089,182.632,500.225,189.231,495.486,191.967Z" transform="translate(-464.32 -152.758)"/><g transform="translate(0 16.36)"><path class="v" d="M513.919,177.164c-.1,5.468-3.961,12.067-8.7,14.8l-20.4,11.776.008,0v16.1l20.388-11.771c12.483-7.207,22.612-24.6,22.737-38.958Z" transform="translate(-474.053 -169.118)"/><path class="s" d="M475.09,235.036l-10.77,6.218v16.109L475.1,251.14v-16.1Z" transform="translate(-464.32 -200.411)"/><path class="t" d="M475.09,235.036l-10.77,6.218v16.109L475.1,251.14v-16.1Z" transform="translate(-464.32 -200.411)"/></g></g><g transform="translate(0.016 23.984)"><path class="w" d="M444.775,261.174l4.816-2.78-4.816-2.81Z" transform="translate(-444.775 -211.847)"/><path class="x" d="M532.083,178.69c0-.072,0-.145,0-.217,0-5.507-3.9-7.734-8.7-4.962l-.3.172,8.982,4.993Z" transform="translate(-481.951 -172.319)"/><path class="y" d="M455.041,212.712l31.166-17.994c4.737-2.735,8.6-9.33,8.7-14.8l-.016-.015-8.982-4.993-1.422.821c-.77,5.054-4.308,10.592-8.547,13.039l-31.166,17.994v10.52l4.815,2.81,5.451-3.147Z" transform="translate(-444.775 -173.551)"/><g transform="translate(0 1.364)"><path class="z" d="M504.632,179.908l-8.982-4.993-1.422.821c-.77,5.054-4.308,10.592-8.547,13.039l-20.387,11.771,10.257,5.949,20.4-11.776c4.737-2.735,8.6-9.33,8.7-14.8Z" transform="translate(-454.516 -174.915)"/><path class="aa" d="M444.775,229.933v10.519l4.816,2.81,5.451-3.147v-4.238l10.77-6.218-10.258-5.949Z" transform="translate(-444.775 -198.079)"/><path class="p" d="M444.775,229.933l10.267,5.944,10.77-6.218-10.258-5.949Z" transform="translate(-444.775 -198.079)"/></g></g><path class="ab" d="M455.027,257.539l-10.283-6.024V235.466l10.283,5.964Z" transform="translate(-444.744 -178.313)"/><path class="ab" d="M455.027,188.895l-10.283-6.024V166.822l10.283,5.964Z" transform="translate(-444.744 -145.725)"/><path class="ac" d="M525.505,133.768c.043.021.089.038.131.06l-9.877-5.741v0c-4.108-2.29-9.756-1.909-15.99,1.69l-4.8,2.772,10.687,5.751v16.06l4.38-2.529-.3.172-1.422.821c-.77,5.054-4.308,10.592-8.547,13.039l-4.719,2.674,10.605,6.139v15.77l4.38-2.529c12.483-7.207,22.612-24.6,22.737-38.958,0-.09.006-.18.006-.269C532.779,141.136,529.977,135.951,525.505,133.768Z" transform="translate(-468.587 -126.659)"/></g><g transform="translate(307.93 126.605)"><g transform="translate(16.297 58.404)"><path class="ad" d="M388.837,243.523v2.635l22.971-12.822v-2.788Z" transform="translate(-371.337 -220.327)"/><path class="ae" d="M379.759,244.926v2.635l-17.521-10.123v-2.788Z" transform="translate(-362.237 -221.731)"/><path class="v" d="M362.237,227.932l17.521,10.275,22.949-12.974-17.559-10.222Z" transform="translate(-362.237 -215.012)"/><path class="p" d="M396.658,223.254h0a2.6,2.6,0,0,0-2.349,0l-4.665,2.693-2.393-1.382a3.936,3.936,0,0,0-3.56-.006h0a.347.347,0,0,0,0,.657l2.023,1.168a1.685,1.685,0,0,1,.96,1.266l.184,2.795,5.155,2.976a2.355,2.355,0,0,0,2.129,0l2.524-1.458,3.147-1.817,1.684-.972c.627-.362.689-.953.094-1.337a2.257,2.257,0,0,0-1.062-.316c.612-.375.6-.966-.039-1.336a2.588,2.588,0,0,0-1.635-.247l.018-.01c.64-.37.69-.976.065-1.358a2.616,2.616,0,0,0-1.974-.2C397.287,224.013,397.184,223.558,396.658,223.254Z" transform="translate(-369.496 -217.735)"/><path class="t" d="M390.044,238.943l-2.4,1.388a1.982,1.982,0,0,1-1.785.074l-5.928-3.422c-.457-.264-.4-.726.128-1.03l2.4-1.389a1.984,1.984,0,0,1,1.785-.074l5.928,3.422C390.63,238.177,390.572,238.638,390.044,238.943Z" transform="translate(-368.183 -221.615)"/></g><g transform="translate(48.631 10.116)"><path class="af" d="M430.5,190.623l.7-1.956s-2.144-1.1-2.436-1.209a2.674,2.674,0,0,0-2.156.073,3.272,3.272,0,0,0-1.631,3.016l-.7-.324c-.2-.119-.7-.321-.7-.321v.009a2.644,2.644,0,0,0-2,.126c-1.57.781-2.1,3.053-1.188,5.074a8.078,8.078,0,0,0,3.412,3.276v.029l3.328,1.67.1-.278c.767.253,1.268.381,1.268.381S431.093,194.487,430.5,190.623Z" transform="translate(-419.942 -187.268)"/><path class="h" d="M430.381,189.428a3.33,3.33,0,0,0-1.629,3.217,3.028,3.028,0,0,0-3.4-.711c-1.57.782-2.1,3.053-1.188,5.074,1.669,3.693,9.092,5.59,9.092,5.59s3.294-7.233,1.625-10.926C433.964,189.652,431.951,188.647,430.381,189.428Z" transform="translate(-421.732 -188.168)"/></g><g transform="translate(11.576 0)"><path class="ag" d="M363.664,184.206l21.964-12.753c2.614-1.509,4.733.093,4.733,3.578v3.436c0,3.485-2.119,7.534-4.733,9.044l-8.2,4.73-3.623,10.669-3.622-6.484-6.524,3.838c-2.614,1.509-4.733-.093-4.733-3.578v-3.435C358.931,189.765,361.05,185.716,363.664,184.206Z" transform="translate(-356.491 -169.458)"/><path class="ah" d="M371.614,204.851l1.474-.852,3.622,6.484L373.8,208.77Z" transform="translate(-359.392 -177.031)"/><path class="ah" d="M360.5,182.353,382.464,169.6a3.092,3.092,0,0,1,2.957-.32l.025-.028,2.587,1.519-.009.032a3.009,3.009,0,0,0-3.121.228L362.94,183.783c-2.614,1.509-4.733,5.558-4.733,9.044v3.435a4.518,4.518,0,0,0,1.318,3.6l-1.442-.95a4.26,4.26,0,0,1-2.315-4.081V191.4C355.768,187.911,357.888,183.862,360.5,182.353Z" transform="translate(-355.768 -169.034)"/><g transform="translate(5.616 7.432)"><path class="p" d="M372.081,198.561,377.1,195.8v1.024l-5.018,2.764Z" transform="translate(-365.115 -182.587)"/><path class="p" d="M380.386,183.788l-5,2.77v-1.024l5-2.77Z" transform="translate(-365.871 -179.606)"/><path class="p" d="M380.027,191.178V192.2l-5.4,2.963v-1.024Z" transform="translate(-365.697 -181.53)"/><path class="p" d="M374.371,190.457v-1.024l1.959-1.131v1.024Z" transform="translate(-365.639 -180.872)"/><path class="p" d="M369.589,189.116v1.024l-3.184,1.8v-1.024Z" transform="translate(-363.817 -181.058)"/><path class="p" d="M382.517,185.507l-4.279,2.354v-1.024l4.279-2.354Z" transform="translate(-366.523 -179.999)"/><path class="p" d="M376.689,191.636v-1.024l3.17-1.7v1.024Z" transform="translate(-366.169 -181.012)"/><path class="p" d="M379.915,195.91v-1.024l.881-.512V195.4Z" transform="translate(-366.907 -182.261)"/><path class="p" d="M374.384,191.872V192.9l-3.3,1.879v-1.024Z" transform="translate(-364.888 -181.689)"/><path class="p" d="M382.956,191.241v-1.024l1.166-.68v1.024Z" transform="translate(-367.602 -181.155)"/><path class="p" d="M371.836,190.522v1.024l-4.141,2.318V192.84Z" transform="translate(-364.112 -181.38)"/><path class="p" d="M370.265,201.165l-1.649.944v-1.024l1.649-.944Z" transform="translate(-364.323 -183.58)"/><path class="p" d="M373.572,188.134l-1.712.968v-1.024l1.712-.968Z" transform="translate(-365.065 -180.6)"/><path class="p" d="M388.079,181.239l4.422-2.569v1.024l-4.422,2.569Z" transform="translate(-368.774 -178.669)"/><path class="p" d="M389.407,183.714l1.635-.953v1.024l-1.635.953Z" transform="translate(-369.078 -179.605)"/><path class="p" d="M385.795,187.477l7.634-4.384v1.024l-7.634,4.384Z" transform="translate(-368.251 -179.681)"/><path class="p" d="M382.127,187.376l4.607-2.624v1.024l-4.607,2.624Z" transform="translate(-367.413 -180.06)"/><path class="p" d="M382.385,194.015v-1.024l3.668-2.1v1.024Z" transform="translate(-367.472 -181.464)"/><path class="p" d="M386.393,183.78l-1.28.741V183.5l1.28-.741Z" transform="translate(-368.095 -179.604)"/><path class="p" d="M368.225,196.089l-5.175,2.948v-1.024l5.175-2.948Z" transform="translate(-363.05 -182.419)"/><path class="p" d="M371.607,196.8l-5.7,3.261V199.04l5.7-3.261Z" transform="translate(-363.703 -182.582)"/></g></g><g transform="translate(36.93 33.659)"><path class="d" d="M375.287,280.732v-2.119l-1.638.648-14.764-8.524a3.842,3.842,0,0,0-3.475-.006l-8.688,5.016-1.218-.909v2.139a1.182,1.182,0,0,0,.714,1.074l9.806,5.661.03,5.644,4.872-2.813.981.566a3.841,3.841,0,0,0,3.476.006l9.2-5.313A1.163,1.163,0,0,0,375.287,280.732Z" transform="translate(-345.492 -268.054)"/><path class="ai" d="M374.566,275.484l-15.689-9.058a3.842,3.842,0,0,0-3.475-.006l-9.2,5.314a1.059,1.059,0,0,0,.011,2.007l9.806,5.661.03,5.644,4.872-2.813.98.566a3.841,3.841,0,0,0,3.476.006l9.2-5.313A1.059,1.059,0,0,0,374.566,275.484Z" transform="translate(-345.484 -266.007)"/><path class="p" d="M366.152,276.879c0,.588-.819,1.063-1.837,1.061s-1.846-.48-1.849-1.068.819-1.063,1.837-1.061S366.149,276.292,366.152,276.879Z" transform="translate(-353.546 -270.662)"/><ellipse class="p" cx="1.064" cy="1.843" rx="1.064" ry="1.843" transform="translate(13.164 9.722) rotate(-89.69)"/><path class="p" d="M382.331,286.22c0,.588-.819,1.063-1.837,1.061s-1.846-.48-1.849-1.067.819-1.063,1.837-1.061S382.328,285.632,382.331,286.22Z" transform="translate(-361.227 -275.096)"/><path class="d" d="M370.463,296.895v2.264l-4.872,2.813v-2.264Z" transform="translate(-355.03 -280.67)"/></g><g transform="translate(0 41.653)"><path class="aj" d="M431.635,264.625v-1.5l-2.669.64-2.91-.527a.951.951,0,0,1-.678-.392l-1.525-2.807a1.418,1.418,0,0,0-1.821-.17l-2.924,2.392a1.367,1.367,0,0,1-.85.249l-5.086-.047h-.027l-1.03-1.03V263l.021.012a.439.439,0,0,0,.206.393l3.055,2.359a.405.405,0,0,1,.152.546l-.912,1.564-.752-.123v1.46a.335.335,0,0,0,0,.143v.027l.007,0c.1.338.712.587,1.345.465l4.812-.935a1.673,1.673,0,0,1,.945.088l4.086,1.763c.684.3,1.653.012,1.639-.48l-.081-2.936c-.005-.2.156-.379.432-.491l4.143-1.688C431.54,265.035,431.672,264.825,431.635,264.625Z" transform="translate(-412.115 -258.069)"/><path class="r" d="M426.077,259.864l4.862.88c.814.148.987.769.294,1.051l-4.143,1.688c-.275.112-.437.3-.432.491l.081,2.936c.014.492-.955.776-1.639.48l-4.086-1.763a1.669,1.669,0,0,0-.945-.088l-4.812.934c-.805.156-1.578-.29-1.307-.754l1.618-2.778a.405.405,0,0,0-.152-.546l-3.055-2.359c-.512-.395-.02-.954.831-.946l5.086.047a1.367,1.367,0,0,0,.85-.249l2.924-2.392a1.418,1.418,0,0,1,1.821.17l1.525,2.807A.951.951,0,0,0,426.077,259.864Z" transform="translate(-412.136 -256.247)"/><g class="ak" transform="translate(19.519 20.608)"><path class="al" d="M454.577,301.1v-.025h0A.248.248,0,0,1,454.577,301.1Z" transform="translate(-454.576 -301.076)"/></g></g><path class="p" d="M391.879,239.528c0,.246-.343.445-.77.444s-.773-.2-.775-.447.344-.445.77-.444S391.878,239.282,391.879,239.528Z" transform="translate(-353.145 -212.028)"/></g></g></svg>