<svg xmlns="http://www.w3.org/2000/svg" xmlns:xlink="http://www.w3.org/1999/xlink" width="60" height="60" viewBox="0 0 60 60"><defs><style>.a{fill:url(#a);}.b{fill:#fff;}</style><linearGradient id="a" x1="0.802" y1="0.893" x2="0.178" y2="-0.087" gradientUnits="objectBoundingBox"><stop offset="0" stop-color="#4d80fb"/><stop offset="1" stop-color="#23ce6b"/></linearGradient></defs><g transform="translate(0.177 0.346)"><circle class="a" cx="30" cy="30" r="30" transform="translate(-0.177 -0.346)"/><g transform="translate(16.077 16.075)"><g transform="translate(0 0)"><ellipse class="b" cx="0.575" cy="0.575" rx="0.575" ry="0.575" transform="translate(23.018 4.028)"/><ellipse class="b" cx="0.575" cy="0.575" rx="0.575" ry="0.575" transform="translate(20.141 4.028)"/><ellipse class="b" cx="0.575" cy="0.575" rx="0.575" ry="0.575" transform="translate(17.264 4.028)"/><path class="b" d="M16.6,10.819l2.762-2.532a.6.6,0,0,1,.46-.23H24.2a.527.527,0,0,0,.46-.575V1.726a.544.544,0,0,0-.575-.575H13.726a.544.544,0,0,0-.575.575V7.481a.544.544,0,0,0,.575.575h2.3a.544.544,0,0,1,.575.575ZM12,1.726A1.77,1.77,0,0,1,13.726,0H24.085a1.77,1.77,0,0,1,1.726,1.726V7.481a1.77,1.77,0,0,1-1.726,1.726H19.941l-3.568,3.338a.423.423,0,0,1-.345.115H15.8a.633.633,0,0,1-.345-.575V9.207H13.726A1.77,1.77,0,0,1,12,7.481Z" transform="translate(1.811 0)"/><path class="b" d="M10.481,7v9.207c0,.115-.115.345-.115.46l-6.56,6.445A5.317,5.317,0,0,1,3,22.307l6.33-6.33V7h1.151Z" transform="translate(0.453 1.056)"/><path class="b" d="M9.651,6.575v.575H8.5V6.575a.575.575,0,1,1,1.151,0Z" transform="translate(1.283 0.906)"/><path class="b" d="M20.309,15.381A10.315,10.315,0,0,1,9.951,25.739,10.166,10.166,0,0,1,2.7,22.747a.423.423,0,0,0,.345.115,1.159,1.159,0,0,0,.345-.115l.46-.46a9.51,9.51,0,0,0,6.1,2.3,9.234,9.234,0,0,0,9.207-9.207,12.748,12.748,0,0,0-.23-2.187.42.42,0,0,1,.23-.575.4.4,0,0,1,.23-.115c.345-.115.575.115.691.46a15.665,15.665,0,0,1,.23,2.417Z" transform="translate(0.407 1.883)"/><path class="b" d="M2.623,21.566a.556.556,0,0,1,0-.806l.46-.46.806.806-.46.46a.423.423,0,0,1-.345.115A.692.692,0,0,1,2.623,21.566Z" transform="translate(0.37 3.064)"/><path class="b" d="M2.992,22.921a.556.556,0,0,0,0,.806A10.648,10.648,0,0,1,0,16.361,10.448,10.448,0,0,1,10.934,6a.575.575,0,0,1,0,1.151V6.578a.575.575,0,1,0-1.151,0v.575a9.286,9.286,0,0,0-8.632,9.207,9.51,9.51,0,0,0,2.3,6.1Z" transform="translate(0 0.903)"/></g></g></g></svg>