<svg xmlns="http://www.w3.org/2000/svg" xmlns:xlink="http://www.w3.org/1999/xlink" width="57" height="57" viewBox="0 0 57 57"><defs><style>.a{fill:url(#a);}.b{fill:#fff;}</style><linearGradient id="a" x1="0.802" y1="0.893" x2="0.178" y2="-0.087" gradientUnits="objectBoundingBox"><stop offset="0" stop-color="#4d80fb"/><stop offset="1" stop-color="#23ce6b"/></linearGradient></defs><g transform="translate(0.177 0.024)"><circle class="a" cx="28.5" cy="28.5" r="28.5" transform="translate(-0.177 -0.024)"/><g transform="translate(15.265 15.275)"><g transform="translate(6.551)"><path class="b" d="M12.551,10.919H12.53a.549.549,0,0,1-.416-.218L10.64,8.735h-3A1.64,1.64,0,0,1,6,7.1V1.638A1.64,1.64,0,0,1,7.638,0h9.827A1.64,1.64,0,0,1,19.1,1.638V7.1a1.64,1.64,0,0,1-1.638,1.638H14.71l-1.748,2A.544.544,0,0,1,12.551,10.919ZM7.638,1.092a.546.546,0,0,0-.546.546V7.1a.546.546,0,0,0,.546.546h3.276a.546.546,0,0,1,.437.218l1.234,1.644,1.467-1.677a.547.547,0,0,1,.411-.186h3A.546.546,0,0,0,18.01,7.1V1.638a.546.546,0,0,0-.546-.546Z" transform="translate(-6)"/></g><g transform="translate(20.429 1.092)"><path class="b" d="M20.118,11.919H20.1a.545.545,0,0,1-.416-.219l-.863-1.157a.546.546,0,1,1,.876-.653l.459.616L21.618,8.83a.548.548,0,0,1,.412-.187h.819a.546.546,0,0,0,.546-.546V2.638a.546.546,0,0,0-.546-.546H20.664a.546.546,0,0,1,0-1.092h2.184a1.64,1.64,0,0,1,1.638,1.638V8.1a1.64,1.64,0,0,1-1.638,1.638h-.571l-1.748,2a.544.544,0,0,1-.411.187Z" transform="translate(-18.71 -1)"/></g><g transform="translate(0 1.092)"><path class="b" d="M4.367,11.919a.544.544,0,0,1-.411-.187l-1.748-2H1.638A1.64,1.64,0,0,1,0,8.1V2.638A1.64,1.64,0,0,1,1.638,1H3.821a.546.546,0,0,1,0,1.092H1.638a.546.546,0,0,0-.546.546V8.1a.546.546,0,0,0,.546.546h.819a.544.544,0,0,1,.411.187L4.332,10.5l.459-.616a.546.546,0,1,1,.876.653L4.8,11.7a.543.543,0,0,1-.415.219H4.367Z" transform="translate(0 -1)"/></g><g transform="translate(19.653 14.194)"><path class="b" d="M20.184,17.367a2.184,2.184,0,1,1,2.184-2.184A2.186,2.186,0,0,1,20.184,17.367Zm0-3.276a1.092,1.092,0,1,0,1.092,1.092A1.094,1.094,0,0,0,20.184,14.092Z" transform="translate(-18 -13)"/></g><g transform="translate(19.653 19.654)"><path class="b" d="M24.005,22.367a.546.546,0,0,1-.546-.546V20.73a1.64,1.64,0,0,0-1.638-1.638H18.546a.546.546,0,0,1,0-1.092h3.276a2.733,2.733,0,0,1,2.73,2.73v1.092A.546.546,0,0,1,24.005,22.367Z" transform="translate(-18 -18)"/></g><g transform="translate(2.184 14.194)"><path class="b" d="M4.184,17.367a2.184,2.184,0,1,1,2.184-2.184A2.186,2.186,0,0,1,4.184,17.367Zm0-3.276a1.092,1.092,0,1,0,1.092,1.092A1.094,1.094,0,0,0,4.184,14.092Z" transform="translate(-2 -13)"/></g><g transform="translate(0 19.654)"><path class="b" d="M.546,22.367A.546.546,0,0,1,0,21.822V20.73A2.733,2.733,0,0,1,2.73,18H6.005a.546.546,0,0,1,0,1.092H2.73A1.64,1.64,0,0,0,1.092,20.73v1.092A.546.546,0,0,1,.546,22.367Z" transform="translate(0 -18)"/></g><g transform="translate(9.827 12.556)"><path class="b" d="M12.276,18.051a3.276,3.276,0,1,1,3.276-3.276A3.28,3.28,0,0,1,12.276,18.051Zm0-5.459a2.184,2.184,0,1,0,2.184,2.184A2.186,2.186,0,0,0,12.276,12.592Z" transform="translate(-9 -11.5)"/></g><g transform="translate(7.097 20.745)"><path class="b" d="M17.964,24.459a.546.546,0,0,1-.546-.546V21.73a1.64,1.64,0,0,0-1.638-1.638H9.23A1.64,1.64,0,0,0,7.592,21.73v2.184a.546.546,0,1,1-1.092,0V21.73A2.733,2.733,0,0,1,9.23,19h6.551a2.733,2.733,0,0,1,2.73,2.73v2.184A.546.546,0,0,1,17.964,24.459Z" transform="translate(-6.5 -19)"/></g></g></g></svg>